<svg width="1218" height="166" viewBox="0 0 1218 166" fill="none" xmlns="http://www.w3.org/2000/svg">
<g filter="url(#filter0_d_1_8)">
<mask id="path-1-outside-1_1_8" maskUnits="userSpaceOnUse" x="57" y="28" width="1106" height="89" fill="black">
<rect fill="white" x="57" y="28" width="1106" height="89"/>
<path d="M60.0902 32.8H90.8102C95.4502 32.8 99.7302 33.46 103.65 34.78C107.57 36.06 110.71 38.14 113.07 41.02C115.47 43.86 116.67 47.64 116.67 52.36C116.67 55.36 116.11 58.04 114.99 60.4C113.91 62.72 112.39 64.64 110.43 66.16C108.51 67.68 106.29 68.76 103.77 69.4C106.09 69.72 108.21 70.36 110.13 71.32C112.05 72.24 113.71 73.5 115.11 75.1C116.55 76.7 117.65 78.68 118.41 81.04C119.21 83.4 119.61 86.16 119.61 89.32C119.61 93.84 118.53 97.8 116.37 101.2C114.25 104.6 111.21 107.26 107.25 109.18C103.33 111.06 98.6302 112 93.1502 112H60.0902V32.8ZM83.3702 93.64H86.6102C88.3302 93.64 89.8102 93.46 91.0502 93.1C92.3302 92.7 93.3102 92.02 93.9902 91.06C94.7102 90.06 95.0702 88.68 95.0702 86.92C95.0702 84.28 94.3102 82.56 92.7902 81.76C91.2702 80.92 89.2102 80.5 86.6102 80.5H83.3702V93.64ZM83.3702 62.56H86.4902C87.9702 62.56 89.2302 62.4 90.2702 62.08C91.3502 61.72 92.1702 61.1 92.7302 60.22C93.3302 59.34 93.6302 58.14 93.6302 56.62C93.6302 54.3 92.9902 52.82 91.7102 52.18C90.4702 51.5 88.7302 51.16 86.4902 51.16H83.3702V62.56ZM128.988 32.8H152.208V112H128.988V32.8ZM203.796 66.88H244.416V72.34C244.416 78.14 243.476 83.54 241.596 88.54C239.716 93.5 236.996 97.86 233.436 101.62C229.916 105.34 225.676 108.24 220.716 110.32C215.756 112.4 210.196 113.44 204.036 113.44C197.676 113.44 191.936 112.4 186.816 110.32C181.736 108.24 177.376 105.34 173.736 101.62C170.096 97.86 167.296 93.5 165.336 88.54C163.416 83.54 162.456 78.14 162.456 72.34C162.456 66.58 163.416 61.22 165.336 56.26C167.296 51.26 170.096 46.9 173.736 43.18C177.376 39.46 181.736 36.56 186.816 34.48C191.936 32.4 197.676 31.36 204.036 31.36C209.796 31.36 214.776 31.98 218.976 33.22C223.176 34.46 226.716 36.08 229.596 38.08C232.476 40.04 234.836 42.16 236.676 44.44C238.516 46.68 239.976 48.8 241.056 50.8L218.736 60.88C217.616 58.96 215.956 57.16 213.756 55.48C211.596 53.8 208.356 52.96 204.036 52.96C201.436 52.96 199.056 53.48 196.896 54.52C194.776 55.52 192.956 56.92 191.436 58.72C189.916 60.48 188.736 62.54 187.896 64.9C187.096 67.22 186.696 69.7 186.696 72.34C186.696 75.02 187.096 77.54 187.896 79.9C188.736 82.22 189.916 84.28 191.436 86.08C192.956 87.84 194.776 89.22 196.896 90.22C199.056 91.22 201.436 91.72 204.036 91.72C206.116 91.72 207.976 91.58 209.616 91.3C211.296 90.98 212.716 90.52 213.876 89.92C215.076 89.28 216.016 88.5 216.696 87.58C217.416 86.62 217.876 85.52 218.076 84.28H203.796V66.88ZM287.551 32.8H318.271C322.911 32.8 327.191 33.46 331.111 34.78C335.031 36.06 338.171 38.14 340.531 41.02C342.931 43.86 344.131 47.64 344.131 52.36C344.131 55.36 343.571 58.04 342.451 60.4C341.371 62.72 339.851 64.64 337.891 66.16C335.971 67.68 333.751 68.76 331.231 69.4C333.551 69.72 335.671 70.36 337.591 71.32C339.511 72.24 341.171 73.5 342.571 75.1C344.011 76.7 345.111 78.68 345.871 81.04C346.671 83.4 347.071 86.16 347.071 89.32C347.071 93.84 345.991 97.8 343.831 101.2C341.711 104.6 338.671 107.26 334.711 109.18C330.791 111.06 326.091 112 320.611 112H287.551V32.8ZM310.831 93.64H314.071C315.791 93.64 317.271 93.46 318.511 93.1C319.791 92.7 320.771 92.02 321.451 91.06C322.171 90.06 322.531 88.68 322.531 86.92C322.531 84.28 321.771 82.56 320.251 81.76C318.731 80.92 316.671 80.5 314.071 80.5H310.831V93.64ZM310.831 62.56H313.951C315.431 62.56 316.691 62.4 317.731 62.08C318.811 61.72 319.631 61.1 320.191 60.22C320.791 59.34 321.091 58.14 321.091 56.62C321.091 54.3 320.451 52.82 319.171 52.18C317.931 51.5 316.191 51.16 313.951 51.16H310.831V62.56ZM381.911 32.8H404.651L437.291 112H412.511L407.471 98.26H379.211L374.111 112H349.271L381.911 32.8ZM387.011 78.1H399.671L393.431 60.64H393.251L387.011 78.1ZM473.902 31.36C479.022 31.36 483.562 31.92 487.522 33.04C491.522 34.12 494.742 35.28 497.182 36.52C499.662 37.76 501.182 38.6 501.742 39.04L490.762 57.64C490.122 57.16 489.002 56.5 487.402 55.66C485.842 54.78 484.082 54 482.122 53.32C480.162 52.64 478.282 52.3 476.482 52.3C474.362 52.3 472.602 52.6 471.202 53.2C469.802 53.76 469.102 54.74 469.102 56.14C469.102 57.1 469.482 57.98 470.242 58.78C471.002 59.58 472.282 60.4 474.082 61.24C475.922 62.08 478.422 63.04 481.582 64.12C484.662 65.12 487.482 66.36 490.042 67.84C492.602 69.32 494.802 71.08 496.642 73.12C498.522 75.16 499.982 77.5 501.022 80.14C502.062 82.78 502.582 85.76 502.582 89.08C502.582 93.48 501.662 97.24 499.822 100.36C498.022 103.44 495.602 105.94 492.562 107.86C489.522 109.78 486.122 111.18 482.362 112.06C478.642 112.98 474.862 113.44 471.022 113.44C465.142 113.44 459.902 112.8 455.302 111.52C450.742 110.24 447.042 108.86 444.202 107.38C441.402 105.86 439.682 104.78 439.042 104.14L450.382 84.76C450.822 85.12 451.762 85.7 453.202 86.5C454.682 87.3 456.442 88.14 458.482 89.02C460.562 89.9 462.702 90.66 464.902 91.3C467.102 91.9 469.142 92.2 471.022 92.2C473.542 92.2 475.402 91.84 476.602 91.12C477.802 90.4 478.402 89.36 478.402 88C478.402 87.04 478.022 86.14 477.262 85.3C476.542 84.46 475.222 83.58 473.302 82.66C471.422 81.7 468.742 80.6 465.262 79.36C461.902 78.12 458.702 76.5 455.662 74.5C452.622 72.5 450.142 69.9 448.222 66.7C446.302 63.5 445.342 59.5 445.342 54.7C445.342 49.82 446.702 45.64 449.422 42.16C452.142 38.68 455.682 36.02 460.042 34.18C464.402 32.3 469.022 31.36 473.902 31.36ZM511.828 32.8H564.988V52.96H535.048V62.56H564.988V82.06H535.048V91.84H564.988V112H511.828V32.8ZM577.23 32.8H604.59C613.03 32.8 620.05 34.5 625.65 37.9C631.29 41.26 635.53 45.92 638.37 51.88C641.21 57.84 642.63 64.66 642.63 72.34C642.63 80.06 641.21 86.9 638.37 92.86C635.53 98.82 631.29 103.5 625.65 106.9C620.05 110.3 613.03 112 604.59 112H577.23V32.8ZM600.45 53.26V91.54H602.49C605.81 91.54 608.61 90.7 610.89 89.02C613.17 87.34 614.91 85.06 616.11 82.18C617.31 79.26 617.91 76.02 617.91 72.46C617.91 68.86 617.31 65.62 616.11 62.74C614.95 59.82 613.21 57.52 610.89 55.84C608.61 54.12 605.81 53.26 602.49 53.26H600.45ZM728.785 90.4C731.585 90.4 734.285 89.96 736.885 89.08C739.525 88.2 741.565 87.32 743.005 86.44L752.905 106.12C750.985 107.72 747.725 109.34 743.125 110.98C738.525 112.62 733.105 113.44 726.865 113.44C721.025 113.44 715.505 112.44 710.305 110.44C705.105 108.4 700.485 105.54 696.445 101.86C692.445 98.18 689.305 93.86 687.025 88.9C684.745 83.9 683.605 78.44 683.605 72.52C683.605 66.6 684.745 61.14 687.025 56.14C689.305 51.1 692.445 46.74 696.445 43.06C700.445 39.34 705.045 36.46 710.245 34.42C715.485 32.38 721.025 31.36 726.865 31.36C733.105 31.36 738.525 32.18 743.125 33.82C747.725 35.46 750.985 37.08 752.905 38.68L743.005 58.36C741.565 57.48 739.525 56.6 736.885 55.72C734.285 54.84 731.585 54.4 728.785 54.4C724.985 54.4 721.805 54.94 719.245 56.02C716.685 57.1 714.625 58.54 713.065 60.34C711.545 62.1 710.445 64.04 709.765 66.16C709.125 68.24 708.805 70.3 708.805 72.34C708.805 74.42 709.125 76.52 709.765 78.64C710.445 80.76 711.545 82.72 713.065 84.52C714.625 86.28 716.685 87.7 719.245 88.78C721.805 89.86 724.985 90.4 728.785 90.4ZM806.044 82.36H786.064V112H762.844V32.8H786.064V62.26H806.044V32.8H829.204V112H806.044V82.36ZM884.208 32.8H907.428V81.1C907.428 87.62 906.168 93.3 903.648 98.14C901.128 102.98 897.408 106.74 892.488 109.42C887.608 112.1 881.588 113.44 874.428 113.44C867.268 113.44 861.208 112.1 856.248 109.42C851.328 106.74 847.608 102.98 845.088 98.14C842.568 93.3 841.308 87.62 841.308 81.1V32.8H864.528V79.84C864.528 82.76 864.888 85.16 865.608 87.04C866.328 88.88 867.408 90.24 868.848 91.12C870.328 92 872.188 92.44 874.428 92.44C876.628 92.44 878.448 92 879.888 91.12C881.328 90.24 882.408 88.88 883.128 87.04C883.848 85.16 884.208 82.76 884.208 79.84V32.8ZM940.183 53.92L941.923 54.22V112H918.703V32.8H950.083L975.943 90.4L974.203 90.76V32.8H997.423V112H965.863L940.183 53.92ZM1048.95 66.88H1089.57V72.34C1089.57 78.14 1088.63 83.54 1086.75 88.54C1084.87 93.5 1082.15 97.86 1078.59 101.62C1075.07 105.34 1070.83 108.24 1065.87 110.32C1060.91 112.4 1055.35 113.44 1049.19 113.44C1042.83 113.44 1037.09 112.4 1031.97 110.32C1026.89 108.24 1022.53 105.34 1018.89 101.62C1015.25 97.86 1012.45 93.5 1010.49 88.54C1008.57 83.54 1007.61 78.14 1007.61 72.34C1007.61 66.58 1008.57 61.22 1010.49 56.26C1012.45 51.26 1015.25 46.9 1018.89 43.18C1022.53 39.46 1026.89 36.56 1031.97 34.48C1037.09 32.4 1042.83 31.36 1049.19 31.36C1054.95 31.36 1059.93 31.98 1064.13 33.22C1068.33 34.46 1071.87 36.08 1074.75 38.08C1077.63 40.04 1079.99 42.16 1081.83 44.44C1083.67 46.68 1085.13 48.8 1086.21 50.8L1063.89 60.88C1062.77 58.96 1061.11 57.16 1058.91 55.48C1056.75 53.8 1053.51 52.96 1049.19 52.96C1046.59 52.96 1044.21 53.48 1042.05 54.52C1039.93 55.52 1038.11 56.92 1036.59 58.72C1035.07 60.48 1033.89 62.54 1033.05 64.9C1032.25 67.22 1031.85 69.7 1031.85 72.34C1031.85 75.02 1032.25 77.54 1033.05 79.9C1033.89 82.22 1035.07 84.28 1036.59 86.08C1038.11 87.84 1039.93 89.22 1042.05 90.22C1044.21 91.22 1046.59 91.72 1049.19 91.72C1051.27 91.72 1053.13 91.58 1054.77 91.3C1056.45 90.98 1057.87 90.52 1059.03 89.92C1060.23 89.28 1061.17 88.5 1061.85 87.58C1062.57 86.62 1063.03 85.52 1063.23 84.28H1048.95V66.88ZM1130.5 31.36C1135.62 31.36 1140.16 31.92 1144.12 33.04C1148.12 34.12 1151.34 35.28 1153.78 36.52C1156.26 37.76 1157.78 38.6 1158.34 39.04L1147.36 57.64C1146.72 57.16 1145.6 56.5 1144 55.66C1142.44 54.78 1140.68 54 1138.72 53.32C1136.76 52.64 1134.88 52.3 1133.08 52.3C1130.96 52.3 1129.2 52.6 1127.8 53.2C1126.4 53.76 1125.7 54.74 1125.7 56.14C1125.7 57.1 1126.08 57.98 1126.84 58.78C1127.6 59.58 1128.88 60.4 1130.68 61.24C1132.52 62.08 1135.02 63.04 1138.18 64.12C1141.26 65.12 1144.08 66.36 1146.64 67.84C1149.2 69.32 1151.4 71.08 1153.24 73.12C1155.12 75.16 1156.58 77.5 1157.62 80.14C1158.66 82.78 1159.18 85.76 1159.18 89.08C1159.18 93.48 1158.26 97.24 1156.42 100.36C1154.62 103.44 1152.2 105.94 1149.16 107.86C1146.12 109.78 1142.72 111.18 1138.96 112.06C1135.24 112.98 1131.46 113.44 1127.62 113.44C1121.74 113.44 1116.5 112.8 1111.9 111.52C1107.34 110.24 1103.64 108.86 1100.8 107.38C1098 105.86 1096.28 104.78 1095.64 104.14L1106.98 84.76C1107.42 85.12 1108.36 85.7 1109.8 86.5C1111.28 87.3 1113.04 88.14 1115.08 89.02C1117.16 89.9 1119.3 90.66 1121.5 91.3C1123.7 91.9 1125.74 92.2 1127.62 92.2C1130.14 92.2 1132 91.84 1133.2 91.12C1134.4 90.4 1135 89.36 1135 88C1135 87.04 1134.62 86.14 1133.86 85.3C1133.14 84.46 1131.82 83.58 1129.9 82.66C1128.02 81.7 1125.34 80.6 1121.86 79.36C1118.5 78.12 1115.3 76.5 1112.26 74.5C1109.22 72.5 1106.74 69.9 1104.82 66.7C1102.9 63.5 1101.94 59.5 1101.94 54.7C1101.94 49.82 1103.3 45.64 1106.02 42.16C1108.74 38.68 1112.28 36.02 1116.64 34.18C1121 32.3 1125.62 31.36 1130.5 31.36Z"/>
</mask>
<path d="M60.0902 32.8H90.8102C95.4502 32.8 99.7302 33.46 103.65 34.78C107.57 36.06 110.71 38.14 113.07 41.02C115.47 43.86 116.67 47.64 116.67 52.36C116.67 55.36 116.11 58.04 114.99 60.4C113.91 62.72 112.39 64.64 110.43 66.16C108.51 67.68 106.29 68.76 103.77 69.4C106.09 69.72 108.21 70.36 110.13 71.32C112.05 72.24 113.71 73.5 115.11 75.1C116.55 76.7 117.65 78.68 118.41 81.04C119.21 83.4 119.61 86.16 119.61 89.32C119.61 93.84 118.53 97.8 116.37 101.2C114.25 104.6 111.21 107.26 107.25 109.18C103.33 111.06 98.6302 112 93.1502 112H60.0902V32.8ZM83.3702 93.64H86.6102C88.3302 93.64 89.8102 93.46 91.0502 93.1C92.3302 92.7 93.3102 92.02 93.9902 91.06C94.7102 90.06 95.0702 88.68 95.0702 86.92C95.0702 84.28 94.3102 82.56 92.7902 81.76C91.2702 80.92 89.2102 80.5 86.6102 80.5H83.3702V93.64ZM83.3702 62.56H86.4902C87.9702 62.56 89.2302 62.4 90.2702 62.08C91.3502 61.72 92.1702 61.1 92.7302 60.22C93.3302 59.34 93.6302 58.14 93.6302 56.62C93.6302 54.3 92.9902 52.82 91.7102 52.18C90.4702 51.5 88.7302 51.16 86.4902 51.16H83.3702V62.56ZM128.988 32.8H152.208V112H128.988V32.8ZM203.796 66.88H244.416V72.34C244.416 78.14 243.476 83.54 241.596 88.54C239.716 93.5 236.996 97.86 233.436 101.62C229.916 105.34 225.676 108.24 220.716 110.32C215.756 112.4 210.196 113.44 204.036 113.44C197.676 113.44 191.936 112.4 186.816 110.32C181.736 108.24 177.376 105.34 173.736 101.62C170.096 97.86 167.296 93.5 165.336 88.54C163.416 83.54 162.456 78.14 162.456 72.34C162.456 66.58 163.416 61.22 165.336 56.26C167.296 51.26 170.096 46.9 173.736 43.18C177.376 39.46 181.736 36.56 186.816 34.48C191.936 32.4 197.676 31.36 204.036 31.36C209.796 31.36 214.776 31.98 218.976 33.22C223.176 34.46 226.716 36.08 229.596 38.08C232.476 40.04 234.836 42.16 236.676 44.44C238.516 46.68 239.976 48.8 241.056 50.8L218.736 60.88C217.616 58.96 215.956 57.16 213.756 55.48C211.596 53.8 208.356 52.96 204.036 52.96C201.436 52.96 199.056 53.48 196.896 54.52C194.776 55.52 192.956 56.92 191.436 58.72C189.916 60.48 188.736 62.54 187.896 64.9C187.096 67.22 186.696 69.7 186.696 72.34C186.696 75.02 187.096 77.54 187.896 79.9C188.736 82.22 189.916 84.28 191.436 86.08C192.956 87.84 194.776 89.22 196.896 90.22C199.056 91.22 201.436 91.72 204.036 91.72C206.116 91.72 207.976 91.58 209.616 91.3C211.296 90.98 212.716 90.52 213.876 89.92C215.076 89.28 216.016 88.5 216.696 87.58C217.416 86.62 217.876 85.52 218.076 84.28H203.796V66.88ZM287.551 32.8H318.271C322.911 32.8 327.191 33.46 331.111 34.78C335.031 36.06 338.171 38.14 340.531 41.02C342.931 43.86 344.131 47.64 344.131 52.36C344.131 55.36 343.571 58.04 342.451 60.4C341.371 62.72 339.851 64.64 337.891 66.16C335.971 67.68 333.751 68.76 331.231 69.4C333.551 69.72 335.671 70.36 337.591 71.32C339.511 72.24 341.171 73.5 342.571 75.1C344.011 76.7 345.111 78.68 345.871 81.04C346.671 83.4 347.071 86.16 347.071 89.32C347.071 93.84 345.991 97.8 343.831 101.2C341.711 104.6 338.671 107.26 334.711 109.18C330.791 111.06 326.091 112 320.611 112H287.551V32.8ZM310.831 93.64H314.071C315.791 93.64 317.271 93.46 318.511 93.1C319.791 92.7 320.771 92.02 321.451 91.06C322.171 90.06 322.531 88.68 322.531 86.92C322.531 84.28 321.771 82.56 320.251 81.76C318.731 80.92 316.671 80.5 314.071 80.5H310.831V93.64ZM310.831 62.56H313.951C315.431 62.56 316.691 62.4 317.731 62.08C318.811 61.72 319.631 61.1 320.191 60.22C320.791 59.34 321.091 58.14 321.091 56.62C321.091 54.3 320.451 52.82 319.171 52.18C317.931 51.5 316.191 51.16 313.951 51.16H310.831V62.56ZM381.911 32.8H404.651L437.291 112H412.511L407.471 98.26H379.211L374.111 112H349.271L381.911 32.8ZM387.011 78.1H399.671L393.431 60.64H393.251L387.011 78.1ZM473.902 31.36C479.022 31.36 483.562 31.92 487.522 33.04C491.522 34.12 494.742 35.28 497.182 36.52C499.662 37.76 501.182 38.6 501.742 39.04L490.762 57.64C490.122 57.16 489.002 56.5 487.402 55.66C485.842 54.78 484.082 54 482.122 53.32C480.162 52.64 478.282 52.3 476.482 52.3C474.362 52.3 472.602 52.6 471.202 53.2C469.802 53.76 469.102 54.74 469.102 56.14C469.102 57.1 469.482 57.98 470.242 58.78C471.002 59.58 472.282 60.4 474.082 61.24C475.922 62.08 478.422 63.04 481.582 64.12C484.662 65.12 487.482 66.36 490.042 67.84C492.602 69.32 494.802 71.08 496.642 73.12C498.522 75.16 499.982 77.5 501.022 80.14C502.062 82.78 502.582 85.76 502.582 89.08C502.582 93.48 501.662 97.24 499.822 100.36C498.022 103.44 495.602 105.94 492.562 107.86C489.522 109.78 486.122 111.18 482.362 112.06C478.642 112.98 474.862 113.44 471.022 113.44C465.142 113.44 459.902 112.8 455.302 111.52C450.742 110.24 447.042 108.86 444.202 107.38C441.402 105.86 439.682 104.78 439.042 104.14L450.382 84.76C450.822 85.12 451.762 85.7 453.202 86.5C454.682 87.3 456.442 88.14 458.482 89.02C460.562 89.9 462.702 90.66 464.902 91.3C467.102 91.9 469.142 92.2 471.022 92.2C473.542 92.2 475.402 91.84 476.602 91.12C477.802 90.4 478.402 89.36 478.402 88C478.402 87.04 478.022 86.14 477.262 85.3C476.542 84.46 475.222 83.58 473.302 82.66C471.422 81.7 468.742 80.6 465.262 79.36C461.902 78.12 458.702 76.5 455.662 74.5C452.622 72.5 450.142 69.9 448.222 66.7C446.302 63.5 445.342 59.5 445.342 54.7C445.342 49.82 446.702 45.64 449.422 42.16C452.142 38.68 455.682 36.02 460.042 34.18C464.402 32.3 469.022 31.36 473.902 31.36ZM511.828 32.8H564.988V52.96H535.048V62.56H564.988V82.06H535.048V91.84H564.988V112H511.828V32.8ZM577.23 32.8H604.59C613.03 32.8 620.05 34.5 625.65 37.9C631.29 41.26 635.53 45.92 638.37 51.88C641.21 57.84 642.63 64.66 642.63 72.34C642.63 80.06 641.21 86.9 638.37 92.86C635.53 98.82 631.29 103.5 625.65 106.9C620.05 110.3 613.03 112 604.59 112H577.23V32.8ZM600.45 53.26V91.54H602.49C605.81 91.54 608.61 90.7 610.89 89.02C613.17 87.34 614.91 85.06 616.11 82.18C617.31 79.26 617.91 76.02 617.91 72.46C617.91 68.86 617.31 65.62 616.11 62.74C614.95 59.82 613.21 57.52 610.89 55.84C608.61 54.12 605.81 53.26 602.49 53.26H600.45ZM728.785 90.4C731.585 90.4 734.285 89.96 736.885 89.08C739.525 88.2 741.565 87.32 743.005 86.44L752.905 106.12C750.985 107.72 747.725 109.34 743.125 110.98C738.525 112.62 733.105 113.44 726.865 113.44C721.025 113.44 715.505 112.44 710.305 110.44C705.105 108.4 700.485 105.54 696.445 101.86C692.445 98.18 689.305 93.86 687.025 88.9C684.745 83.9 683.605 78.44 683.605 72.52C683.605 66.6 684.745 61.14 687.025 56.14C689.305 51.1 692.445 46.74 696.445 43.06C700.445 39.34 705.045 36.46 710.245 34.42C715.485 32.38 721.025 31.36 726.865 31.36C733.105 31.36 738.525 32.18 743.125 33.82C747.725 35.46 750.985 37.08 752.905 38.68L743.005 58.36C741.565 57.48 739.525 56.6 736.885 55.72C734.285 54.84 731.585 54.4 728.785 54.4C724.985 54.4 721.805 54.94 719.245 56.02C716.685 57.1 714.625 58.54 713.065 60.34C711.545 62.1 710.445 64.04 709.765 66.16C709.125 68.24 708.805 70.3 708.805 72.34C708.805 74.42 709.125 76.52 709.765 78.64C710.445 80.76 711.545 82.72 713.065 84.52C714.625 86.28 716.685 87.7 719.245 88.78C721.805 89.86 724.985 90.4 728.785 90.4ZM806.044 82.36H786.064V112H762.844V32.8H786.064V62.26H806.044V32.8H829.204V112H806.044V82.36ZM884.208 32.8H907.428V81.1C907.428 87.62 906.168 93.3 903.648 98.14C901.128 102.98 897.408 106.74 892.488 109.42C887.608 112.1 881.588 113.44 874.428 113.44C867.268 113.44 861.208 112.1 856.248 109.42C851.328 106.74 847.608 102.98 845.088 98.14C842.568 93.3 841.308 87.62 841.308 81.1V32.8H864.528V79.84C864.528 82.76 864.888 85.16 865.608 87.04C866.328 88.88 867.408 90.24 868.848 91.12C870.328 92 872.188 92.44 874.428 92.44C876.628 92.44 878.448 92 879.888 91.12C881.328 90.24 882.408 88.88 883.128 87.04C883.848 85.16 884.208 82.76 884.208 79.84V32.8ZM940.183 53.92L941.923 54.22V112H918.703V32.8H950.083L975.943 90.4L974.203 90.76V32.8H997.423V112H965.863L940.183 53.92ZM1048.95 66.88H1089.57V72.34C1089.57 78.14 1088.63 83.54 1086.75 88.54C1084.87 93.5 1082.15 97.86 1078.59 101.62C1075.07 105.34 1070.83 108.24 1065.87 110.32C1060.91 112.4 1055.35 113.44 1049.19 113.44C1042.83 113.44 1037.09 112.4 1031.97 110.32C1026.89 108.24 1022.53 105.34 1018.89 101.62C1015.25 97.86 1012.45 93.5 1010.49 88.54C1008.57 83.54 1007.61 78.14 1007.61 72.34C1007.61 66.58 1008.57 61.22 1010.49 56.26C1012.45 51.26 1015.25 46.9 1018.89 43.18C1022.53 39.46 1026.89 36.56 1031.97 34.48C1037.09 32.4 1042.83 31.36 1049.19 31.36C1054.95 31.36 1059.93 31.98 1064.13 33.22C1068.33 34.46 1071.87 36.08 1074.75 38.08C1077.63 40.04 1079.99 42.16 1081.83 44.44C1083.67 46.68 1085.13 48.8 1086.21 50.8L1063.89 60.88C1062.77 58.96 1061.11 57.16 1058.91 55.48C1056.75 53.8 1053.51 52.96 1049.19 52.96C1046.59 52.96 1044.21 53.48 1042.05 54.52C1039.93 55.52 1038.11 56.92 1036.59 58.72C1035.07 60.48 1033.89 62.54 1033.05 64.9C1032.25 67.22 1031.85 69.7 1031.85 72.34C1031.85 75.02 1032.25 77.54 1033.05 79.9C1033.89 82.22 1035.07 84.28 1036.59 86.08C1038.11 87.84 1039.93 89.22 1042.05 90.22C1044.21 91.22 1046.59 91.72 1049.19 91.72C1051.27 91.72 1053.13 91.58 1054.77 91.3C1056.45 90.98 1057.87 90.52 1059.03 89.92C1060.23 89.28 1061.17 88.5 1061.85 87.58C1062.57 86.62 1063.03 85.52 1063.23 84.28H1048.95V66.88ZM1130.5 31.36C1135.62 31.36 1140.16 31.92 1144.12 33.04C1148.12 34.12 1151.34 35.28 1153.78 36.52C1156.26 37.76 1157.78 38.6 1158.34 39.04L1147.36 57.64C1146.72 57.16 1145.6 56.5 1144 55.66C1142.44 54.78 1140.68 54 1138.72 53.32C1136.76 52.64 1134.88 52.3 1133.08 52.3C1130.96 52.3 1129.2 52.6 1127.8 53.2C1126.4 53.76 1125.7 54.74 1125.7 56.14C1125.7 57.1 1126.08 57.98 1126.84 58.78C1127.6 59.58 1128.88 60.4 1130.68 61.24C1132.52 62.08 1135.02 63.04 1138.18 64.12C1141.26 65.12 1144.08 66.36 1146.64 67.84C1149.2 69.32 1151.4 71.08 1153.24 73.12C1155.12 75.16 1156.58 77.5 1157.62 80.14C1158.66 82.78 1159.18 85.76 1159.18 89.08C1159.18 93.48 1158.26 97.24 1156.42 100.36C1154.62 103.44 1152.2 105.94 1149.16 107.86C1146.12 109.78 1142.72 111.18 1138.96 112.06C1135.24 112.98 1131.46 113.44 1127.62 113.44C1121.74 113.44 1116.5 112.8 1111.9 111.52C1107.34 110.24 1103.64 108.86 1100.8 107.38C1098 105.86 1096.28 104.78 1095.64 104.14L1106.98 84.76C1107.42 85.12 1108.36 85.7 1109.8 86.5C1111.28 87.3 1113.04 88.14 1115.08 89.02C1117.16 89.9 1119.3 90.66 1121.5 91.3C1123.7 91.9 1125.74 92.2 1127.62 92.2C1130.14 92.2 1132 91.84 1133.2 91.12C1134.4 90.4 1135 89.36 1135 88C1135 87.04 1134.62 86.14 1133.86 85.3C1133.14 84.46 1131.82 83.58 1129.9 82.66C1128.02 81.7 1125.34 80.6 1121.86 79.36C1118.5 78.12 1115.3 76.5 1112.26 74.5C1109.22 72.5 1106.74 69.9 1104.82 66.7C1102.9 63.5 1101.94 59.5 1101.94 54.7C1101.94 49.82 1103.3 45.64 1106.02 42.16C1108.74 38.68 1112.28 36.02 1116.64 34.18C1121 32.3 1125.62 31.36 1130.5 31.36Z" fill="#4575F1"/>
<path d="M60.0902 32.8V29.8H57.0902V32.8H60.0902ZM103.65 34.78L102.693 37.6231L102.706 37.6275L102.719 37.6318L103.65 34.78ZM113.07 41.02L110.75 42.9215L110.764 42.939L110.779 42.9564L113.07 41.02ZM114.99 60.4L112.28 59.1138L112.275 59.1238L112.27 59.1339L114.99 60.4ZM110.43 66.16L108.592 63.7893L108.58 63.7985L108.568 63.8079L110.43 66.16ZM103.77 69.4L103.032 66.4923L103.36 72.3719L103.77 69.4ZM110.13 71.32L108.789 74.0033L108.811 74.0146L108.834 74.0254L110.13 71.32ZM115.11 75.1L112.852 77.0755L112.866 77.0913L112.88 77.1069L115.11 75.1ZM118.41 81.04L115.555 81.9596L115.562 81.9814L115.569 82.0031L118.41 81.04ZM116.37 101.2L113.838 99.5913L113.831 99.602L113.824 99.6127L116.37 101.2ZM107.25 109.18L108.547 111.885L108.559 111.879L107.25 109.18ZM60.0902 112H57.0902V115H60.0902V112ZM83.3702 93.64H80.3702V96.64H83.3702V93.64ZM91.0502 93.1L91.8866 95.981L91.9159 95.9725L91.945 95.9634L91.0502 93.1ZM93.9902 91.06L91.5556 89.3071L91.5488 89.3165L91.5421 89.3259L93.9902 91.06ZM92.7902 81.76L91.3391 84.3857L91.3659 84.4005L91.3929 84.4148L92.7902 81.76ZM83.3702 80.5V77.5H80.3702V80.5H83.3702ZM83.3702 62.56H80.3702V65.56H83.3702V62.56ZM90.2702 62.08L91.1524 64.9473L91.1857 64.9371L91.2188 64.926L90.2702 62.08ZM92.7302 60.22L90.2515 58.53L90.2247 58.5693L90.1992 58.6094L92.7302 60.22ZM91.7102 52.18L90.2677 54.8104L90.3176 54.8378L90.3685 54.8633L91.7102 52.18ZM83.3702 51.16V48.16H80.3702V51.16H83.3702ZM60.0902 35.8H90.8102V29.8H60.0902V35.8ZM90.8102 35.8C95.1638 35.8 99.1164 36.4188 102.693 37.6231L104.608 31.9369C100.344 30.5012 95.7365 29.8 90.8102 29.8V35.8ZM102.719 37.6318C106.155 38.7539 108.791 40.5311 110.75 42.9215L115.391 39.1185C112.629 35.7488 108.985 33.3661 104.581 31.9282L102.719 37.6318ZM110.779 42.9564C112.609 45.1221 113.67 48.1531 113.67 52.36H119.67C119.67 47.1269 118.331 42.5979 115.362 39.0836L110.779 42.9564ZM113.67 52.36C113.67 54.9811 113.183 57.2114 112.28 59.1138L117.7 61.6862C119.038 58.8686 119.67 55.7389 119.67 52.36H113.67ZM112.27 59.1339C111.385 61.035 110.162 62.5716 108.592 63.7893L112.269 68.5307C114.618 66.7084 116.435 64.405 117.71 61.6661L112.27 59.1339ZM108.568 63.8079C107 65.0496 105.168 65.9498 103.032 66.4923L104.509 72.3077C107.412 71.5702 110.021 70.3104 112.292 68.5121L108.568 63.8079ZM103.36 72.3719C105.385 72.6512 107.187 73.2024 108.789 74.0033L111.472 68.6367C109.234 67.5176 106.795 66.7888 104.18 66.4281L103.36 72.3719ZM108.834 74.0254C110.388 74.77 111.721 75.7819 112.852 77.0755L117.368 73.1245C115.7 71.2181 113.713 69.71 111.427 68.6146L108.834 74.0254ZM112.88 77.1069C113.998 78.3484 114.905 79.9413 115.555 81.9596L121.266 80.1204C120.396 77.4187 119.103 75.0516 117.34 73.0931L112.88 77.1069ZM115.569 82.0031C116.24 83.9825 116.61 86.4039 116.61 89.32H122.61C122.61 85.9161 122.18 82.8175 121.251 80.0769L115.569 82.0031ZM116.61 89.32C116.61 93.3419 115.656 96.7294 113.838 99.5913L118.902 102.809C121.404 98.8706 122.61 94.3381 122.61 89.32H116.61ZM113.824 99.6127C112.033 102.486 109.444 104.782 105.941 106.481L108.559 111.879C112.976 109.738 116.468 106.714 118.916 102.787L113.824 99.6127ZM105.953 106.475C102.529 108.117 98.2947 109 93.1502 109V115C98.9656 115 104.131 114.003 108.547 111.885L105.953 106.475ZM93.1502 109H60.0902V115H93.1502V109ZM63.0902 112V32.8H57.0902V112H63.0902ZM83.3702 96.64H86.6102V90.64H83.3702V96.64ZM86.6102 96.64C88.5255 96.64 90.3018 96.4411 91.8866 95.981L90.2137 90.219C89.3185 90.4789 88.1348 90.64 86.6102 90.64V96.64ZM91.945 95.9634C93.7606 95.3961 95.3261 94.3641 96.4382 92.794L91.5421 89.3259C91.2942 89.6759 90.8997 90.0039 90.1553 90.2366L91.945 95.9634ZM96.4248 92.8129C97.6396 91.1257 98.0702 89.0494 98.0702 86.92H92.0702C92.0702 88.3106 91.7808 88.9943 91.5556 89.3071L96.4248 92.8129ZM98.0702 86.92C98.0702 83.8208 97.1619 80.6708 94.1874 79.1052L91.3929 84.4148C91.4584 84.4492 92.0702 84.7392 92.0702 86.92H98.0702ZM94.2412 79.1343C92.11 77.9565 89.4848 77.5 86.6102 77.5V83.5C88.9355 83.5 90.4303 83.8835 91.3391 84.3857L94.2412 79.1343ZM86.6102 77.5H83.3702V83.5H86.6102V77.5ZM80.3702 80.5V93.64H86.3702V80.5H80.3702ZM83.3702 65.56H86.4902V59.56H83.3702V65.56ZM86.4902 65.56C88.1693 65.56 89.7447 65.3805 91.1524 64.9473L89.3879 59.2127C88.7157 59.4195 87.771 59.56 86.4902 59.56V65.56ZM91.2188 64.926C92.8887 64.3694 94.2966 63.3463 95.2611 61.8306L90.1992 58.6094C90.0437 58.8537 89.8117 59.0706 89.3215 59.2339L91.2188 64.926ZM95.2088 61.91C96.2651 60.3609 96.6302 58.4961 96.6302 56.62H90.6302C90.6302 57.7839 90.3952 58.3191 90.2515 58.53L95.2088 61.91ZM96.6302 56.62C96.6302 53.9254 95.8858 50.9137 93.0518 49.4967L90.3685 54.8633C90.2967 54.8273 90.3191 54.7815 90.3966 54.9607C90.4991 55.1978 90.6302 55.7039 90.6302 56.62H96.6302ZM93.1527 49.5496C91.2849 48.5253 88.9688 48.16 86.4902 48.16V54.16C88.4915 54.16 89.6554 54.4747 90.2677 54.8104L93.1527 49.5496ZM86.4902 48.16H83.3702V54.16H86.4902V48.16ZM80.3702 51.16V62.56H86.3702V51.16H80.3702ZM128.988 32.8V29.8H125.988V32.8H128.988ZM152.208 32.8H155.208V29.8H152.208V32.8ZM152.208 112V115H155.208V112H152.208ZM128.988 112H125.988V115H128.988V112ZM128.988 35.8H152.208V29.8H128.988V35.8ZM149.208 32.8V112H155.208V32.8H149.208ZM152.208 109H128.988V115H152.208V109ZM131.988 112V32.8H125.988V112H131.988ZM203.796 66.88V63.88H200.796V66.88H203.796ZM244.416 66.88H247.416V63.88H244.416V66.88ZM241.596 88.54L244.401 89.6033L244.404 89.5958L241.596 88.54ZM233.436 101.62L231.257 99.5574L231.257 99.5581L233.436 101.62ZM220.716 110.32L221.876 113.087L221.876 113.087L220.716 110.32ZM186.816 110.32L185.679 113.096L185.687 113.099L186.816 110.32ZM173.736 101.62L171.58 103.707L171.586 103.712L171.592 103.718L173.736 101.62ZM165.336 88.54L162.535 89.6154L162.54 89.629L162.546 89.6425L165.336 88.54ZM165.336 56.26L162.543 55.1651L162.538 55.177L165.336 56.26ZM173.736 43.18L171.592 41.0819L171.592 41.0819L173.736 43.18ZM186.816 34.48L185.687 31.7006L185.679 31.7037L186.816 34.48ZM218.976 33.22L218.126 36.0972L218.126 36.0972L218.976 33.22ZM229.596 38.08L227.885 40.5441L227.896 40.5522L227.908 40.5601L229.596 38.08ZM236.676 44.44L234.341 46.3241L234.349 46.3342L234.358 46.3442L236.676 44.44ZM241.056 50.8L242.291 53.5341L245.226 52.2085L243.696 49.3745L241.056 50.8ZM218.736 60.88L216.144 62.3916L217.507 64.7268L219.971 63.6141L218.736 60.88ZM213.756 55.48L211.914 57.8481L211.924 57.8562L211.935 57.8643L213.756 55.48ZM196.896 54.52L198.176 57.2333L198.186 57.2282L198.197 57.223L196.896 54.52ZM191.436 58.72L193.706 60.6809L193.717 60.6683L193.728 60.6555L191.436 58.72ZM187.896 64.9L185.069 63.894L185.064 63.908L185.06 63.922L187.896 64.9ZM187.896 79.9L185.055 80.8631L185.064 80.8923L185.075 80.9213L187.896 79.9ZM191.436 86.08L189.144 88.0155L189.154 88.0283L189.165 88.0409L191.436 86.08ZM196.896 90.22L195.616 92.9333L195.626 92.9379L195.635 92.9424L196.896 90.22ZM209.616 91.3L210.121 94.2572L210.149 94.2524L210.177 94.247L209.616 91.3ZM213.876 89.92L215.254 92.5847L215.271 92.576L215.288 92.5671L213.876 89.92ZM216.696 87.58L214.296 85.78L214.289 85.7884L214.283 85.7968L216.696 87.58ZM218.076 84.28L221.038 84.7577L221.598 81.28H218.076V84.28ZM203.796 84.28H200.796V87.28H203.796V84.28ZM203.796 69.88H244.416V63.88H203.796V69.88ZM241.416 66.88V72.34H247.416V66.88H241.416ZM241.416 72.34C241.416 77.8104 240.53 82.8496 238.788 87.4842L244.404 89.5958C246.421 84.2304 247.416 78.4696 247.416 72.34H241.416ZM238.791 87.4767C237.048 92.0747 234.538 96.0929 231.257 99.5574L235.614 103.683C239.454 99.6271 242.384 94.9253 244.401 89.6033L238.791 87.4767ZM231.257 99.5581C228.038 102.96 224.15 105.627 219.556 107.553L221.876 113.087C227.201 110.853 231.794 107.72 235.615 103.682L231.257 99.5581ZM219.556 107.553C215.013 109.459 209.855 110.44 204.036 110.44V116.44C210.537 116.44 216.499 115.341 221.876 113.087L219.556 107.553ZM204.036 110.44C198.005 110.44 192.656 109.455 187.945 107.541L185.687 113.099C191.215 115.345 197.346 116.44 204.036 116.44V110.44ZM187.953 107.544C183.23 105.61 179.218 102.934 175.88 99.5219L171.592 103.718C175.533 107.746 180.242 110.87 185.679 113.096L187.953 107.544ZM175.891 99.5334C172.531 96.062 169.944 92.0381 168.126 87.4375L162.546 89.6425C164.648 94.9619 167.661 99.658 171.58 103.707L175.891 99.5334ZM168.136 87.4646C166.359 82.8353 165.456 77.8029 165.456 72.34H159.456C159.456 78.477 160.473 84.2447 162.535 89.6154L168.136 87.4646ZM165.456 72.34C165.456 66.9195 166.358 61.9299 168.133 57.343L162.538 55.177C160.474 60.5101 159.456 66.2405 159.456 72.34H165.456ZM168.129 57.3549C169.947 52.7172 172.53 48.7014 175.88 45.2781L171.592 41.0819C167.661 45.0986 164.645 49.8028 162.543 55.1651L168.129 57.3549ZM175.88 45.2781C179.218 41.8664 183.23 39.1899 187.953 37.2563L185.679 31.7037C180.242 33.9301 175.533 37.0536 171.592 41.0819L175.88 45.2781ZM187.945 37.2594C192.656 35.3454 198.005 34.36 204.036 34.36V28.36C197.346 28.36 191.215 29.4546 185.687 31.7006L187.945 37.2594ZM204.036 34.36C209.593 34.36 214.273 34.9596 218.126 36.0972L219.825 30.3428C215.278 29.0004 209.998 28.36 204.036 28.36V34.36ZM218.126 36.0972C222.092 37.2681 225.324 38.766 227.885 40.5441L231.307 35.6159C228.108 33.394 224.259 31.6519 219.825 30.3428L218.126 36.0972ZM227.908 40.5601C230.589 42.3847 232.717 44.312 234.341 46.3241L239.01 42.5559C236.954 40.008 234.363 37.6953 231.284 35.5999L227.908 40.5601ZM234.358 46.3442C236.107 48.4738 237.449 50.4338 238.416 52.2254L243.696 49.3745C242.503 47.1662 240.925 44.8862 238.994 42.5358L234.358 46.3442ZM239.821 48.0659L217.501 58.1459L219.971 63.6141L242.291 53.5341L239.821 48.0659ZM221.327 59.3684C219.968 57.038 218.014 54.9571 215.577 53.0957L211.935 57.8643C213.898 59.3629 215.264 60.882 216.144 62.3916L221.327 59.3684ZM215.598 53.1119C212.683 50.8454 208.662 49.96 204.036 49.96V55.96C208.05 55.96 210.508 56.7546 211.914 57.8481L215.598 53.1119ZM204.036 49.96C201.024 49.96 198.194 50.5654 195.594 51.817L198.197 57.223C199.918 56.3946 201.848 55.96 204.036 55.96V49.96ZM195.616 51.8067C193.105 52.9913 190.94 54.6573 189.144 56.7845L193.728 60.6555C194.972 59.1827 196.447 58.0487 198.176 57.2333L195.616 51.8067ZM189.165 56.7591C187.384 58.8213 186.024 61.2113 185.069 63.894L190.722 65.906C191.447 63.8687 192.447 62.1387 193.706 60.6809L189.165 56.7591ZM185.06 63.922C184.143 66.5797 183.696 69.3924 183.696 72.34H189.696C189.696 70.0076 190.048 67.8603 190.732 65.878L185.06 63.922ZM183.696 72.34C183.696 75.3228 184.142 78.1703 185.055 80.8631L190.737 78.9369C190.05 76.9097 189.696 74.7172 189.696 72.34H183.696ZM185.075 80.9213C186.03 83.559 187.384 85.9318 189.144 88.0155L193.728 84.1445C192.447 82.6282 191.442 80.881 190.717 78.8787L185.075 80.9213ZM189.165 88.0409C190.962 90.1207 193.12 91.7559 195.616 92.9333L198.176 87.5067C196.432 86.6841 194.95 85.5593 193.706 84.1191L189.165 88.0409ZM195.635 92.9424C198.226 94.1416 201.041 94.72 204.036 94.72V88.72C201.83 88.72 199.886 88.2984 198.156 87.4976L195.635 92.9424ZM204.036 94.72C206.245 94.72 208.279 94.5717 210.121 94.2572L209.111 88.3428C207.673 88.5883 205.987 88.72 204.036 88.72V94.72ZM210.177 94.247C212.059 93.8886 213.771 93.3515 215.254 92.5847L212.498 87.2553C211.66 87.6885 210.533 88.0714 209.054 88.353L210.177 94.247ZM215.288 92.5671C216.808 91.7563 218.118 90.7034 219.108 89.3632L214.283 85.7968C213.914 86.2966 213.344 86.8037 212.464 87.2729L215.288 92.5671ZM219.096 89.38C220.121 88.0129 220.764 86.4543 221.038 84.7577L215.114 83.8023C214.988 84.5857 214.71 85.2271 214.296 85.78L219.096 89.38ZM218.076 81.28H203.796V87.28H218.076V81.28ZM206.796 84.28V66.88H200.796V84.28H206.796ZM287.551 32.8V29.8H284.551V32.8H287.551ZM331.111 34.78L330.154 37.6231L330.167 37.6275L330.18 37.6318L331.111 34.78ZM340.531 41.02L338.211 42.9215L338.225 42.939L338.24 42.9564L340.531 41.02ZM342.451 60.4L339.741 59.1138L339.736 59.1238L339.731 59.1339L342.451 60.4ZM337.891 66.16L336.053 63.7893L336.041 63.7985L336.029 63.8079L337.891 66.16ZM331.231 69.4L330.493 66.4923L330.821 72.3719L331.231 69.4ZM337.591 71.32L336.249 74.0033L336.272 74.0146L336.295 74.0254L337.591 71.32ZM342.571 75.1L340.313 77.0755L340.327 77.0913L340.341 77.1069L342.571 75.1ZM345.871 81.04L343.016 81.9596L343.023 81.9814L343.03 82.0031L345.871 81.04ZM343.831 101.2L341.299 99.5913L341.292 99.602L341.285 99.6127L343.831 101.2ZM334.711 109.18L336.008 111.885L336.02 111.879L334.711 109.18ZM287.551 112H284.551V115H287.551V112ZM310.831 93.64H307.831V96.64H310.831V93.64ZM318.511 93.1L319.348 95.981L319.377 95.9725L319.406 95.9634L318.511 93.1ZM321.451 91.06L319.016 89.3071L319.01 89.3165L319.003 89.3259L321.451 91.06ZM320.251 81.76L318.8 84.3857L318.827 84.4005L318.854 84.4148L320.251 81.76ZM310.831 80.5V77.5H307.831V80.5H310.831ZM310.831 62.56H307.831V65.56H310.831V62.56ZM317.731 62.08L318.613 64.9473L318.647 64.9371L318.68 64.926L317.731 62.08ZM320.191 60.22L317.712 58.53L317.686 58.5693L317.66 58.6094L320.191 60.22ZM319.171 52.18L317.729 54.8104L317.779 54.8378L317.829 54.8633L319.171 52.18ZM310.831 51.16V48.16H307.831V51.16H310.831ZM287.551 35.8H318.271V29.8H287.551V35.8ZM318.271 35.8C322.625 35.8 326.577 36.4188 330.154 37.6231L332.068 31.9369C327.805 30.5012 323.197 29.8 318.271 29.8V35.8ZM330.18 37.6318C333.616 38.7539 336.252 40.5311 338.211 42.9215L342.852 39.1185C340.09 35.7488 336.446 33.3661 332.042 31.9282L330.18 37.6318ZM338.24 42.9564C340.07 45.1221 341.131 48.1531 341.131 52.36H347.131C347.131 47.1269 345.792 42.5979 342.822 39.0836L338.24 42.9564ZM341.131 52.36C341.131 54.9811 340.644 57.2114 339.741 59.1138L345.161 61.6862C346.499 58.8686 347.131 55.7389 347.131 52.36H341.131ZM339.731 59.1339C338.846 61.035 337.623 62.5716 336.053 63.7893L339.73 68.5307C342.079 66.7084 343.896 64.405 345.171 61.6661L339.731 59.1339ZM336.029 63.8079C334.46 65.0496 332.629 65.9498 330.493 66.4923L331.97 72.3077C334.873 71.5702 337.482 70.3104 339.753 68.5121L336.029 63.8079ZM330.821 72.3719C332.846 72.6512 334.648 73.2024 336.249 74.0033L338.933 68.6367C336.695 67.5176 334.256 66.7888 331.641 66.4281L330.821 72.3719ZM336.295 74.0254C337.849 74.77 339.181 75.7819 340.313 77.0755L344.829 73.1245C343.161 71.2181 341.174 69.71 338.887 68.6146L336.295 74.0254ZM340.341 77.1069C341.459 78.3484 342.366 79.9413 343.016 81.9596L348.727 80.1204C347.857 77.4187 346.564 75.0516 344.801 73.0931L340.341 77.1069ZM343.03 82.0031C343.701 83.9825 344.071 86.4039 344.071 89.32H350.071C350.071 85.9161 349.641 82.8175 348.712 80.0769L343.03 82.0031ZM344.071 89.32C344.071 93.3419 343.117 96.7294 341.299 99.5913L346.363 102.809C348.865 98.8706 350.071 94.3381 350.071 89.32H344.071ZM341.285 99.6127C339.494 102.486 336.905 104.782 333.402 106.481L336.02 111.879C340.437 109.738 343.928 106.714 346.377 102.787L341.285 99.6127ZM333.414 106.475C329.99 108.117 325.756 109 320.611 109V115C326.427 115 331.592 114.003 336.008 111.885L333.414 106.475ZM320.611 109H287.551V115H320.611V109ZM290.551 112V32.8H284.551V112H290.551ZM310.831 96.64H314.071V90.64H310.831V96.64ZM314.071 96.64C315.986 96.64 317.763 96.4411 319.348 95.981L317.675 90.219C316.779 90.4789 315.596 90.64 314.071 90.64V96.64ZM319.406 95.9634C321.222 95.3961 322.787 94.3641 323.899 92.794L319.003 89.3259C318.755 89.6759 318.361 90.0039 317.616 90.2366L319.406 95.9634ZM323.886 92.8129C325.1 91.1257 325.531 89.0494 325.531 86.92H319.531C319.531 88.3106 319.242 88.9943 319.016 89.3071L323.886 92.8129ZM325.531 86.92C325.531 83.8208 324.623 80.6708 321.648 79.1052L318.854 84.4148C318.919 84.4492 319.531 84.7392 319.531 86.92H325.531ZM321.702 79.1343C319.571 77.9565 316.946 77.5 314.071 77.5V83.5C316.396 83.5 317.891 83.8835 318.8 84.3857L321.702 79.1343ZM314.071 77.5H310.831V83.5H314.071V77.5ZM307.831 80.5V93.64H313.831V80.5H307.831ZM310.831 65.56H313.951V59.56H310.831V65.56ZM313.951 65.56C315.63 65.56 317.206 65.3805 318.613 64.9473L316.849 59.2127C316.177 59.4195 315.232 59.56 313.951 59.56V65.56ZM318.68 64.926C320.35 64.3694 321.758 63.3463 322.722 61.8306L317.66 58.6094C317.505 58.8537 317.273 59.0706 316.782 59.2339L318.68 64.926ZM322.67 61.91C323.726 60.3609 324.091 58.4961 324.091 56.62H318.091C318.091 57.7839 317.856 58.3191 317.712 58.53L322.67 61.91ZM324.091 56.62C324.091 53.9254 323.347 50.9137 320.513 49.4967L317.829 54.8633C317.758 54.8273 317.78 54.7815 317.858 54.9607C317.96 55.1978 318.091 55.7039 318.091 56.62H324.091ZM320.614 49.5496C318.746 48.5253 316.43 48.16 313.951 48.16V54.16C315.952 54.16 317.116 54.4747 317.729 54.8104L320.614 49.5496ZM313.951 48.16H310.831V54.16H313.951V48.16ZM307.831 51.16V62.56H313.831V51.16H307.831ZM381.911 32.8V29.8H379.903L379.138 31.6569L381.911 32.8ZM404.651 32.8L407.425 31.6569L406.66 29.8H404.651V32.8ZM437.291 112V115H441.773L440.065 110.857L437.291 112ZM412.511 112L409.695 113.033L410.416 115H412.511V112ZM407.471 98.26L410.288 97.2269L409.566 95.26H407.471V98.26ZM379.211 98.26V95.26H377.125L376.399 97.2161L379.211 98.26ZM374.111 112V115H376.198L376.924 113.044L374.111 112ZM349.271 112L346.498 110.857L344.79 115H349.271V112ZM387.011 78.1L384.186 77.0904L382.753 81.1H387.011V78.1ZM399.671 78.1V81.1H403.929L402.496 77.0904L399.671 78.1ZM393.431 60.64L396.256 59.6304L395.545 57.64H393.431V60.64ZM393.251 60.64V57.64H391.138L390.426 59.6304L393.251 60.64ZM381.911 35.8H404.651V29.8H381.911V35.8ZM401.878 33.9431L434.518 113.143L440.065 110.857L407.425 31.6569L401.878 33.9431ZM437.291 109H412.511V115H437.291V109ZM415.328 110.967L410.288 97.2269L404.655 99.2931L409.695 113.033L415.328 110.967ZM407.471 95.26H379.211V101.26H407.471V95.26ZM376.399 97.2161L371.299 110.956L376.924 113.044L382.024 99.3039L376.399 97.2161ZM374.111 109H349.271V115H374.111V109ZM352.045 113.143L384.685 33.9431L379.138 31.6569L346.498 110.857L352.045 113.143ZM387.011 81.1H399.671V75.1H387.011V81.1ZM402.496 77.0904L396.256 59.6304L390.606 61.6496L396.846 79.1096L402.496 77.0904ZM393.431 57.64H393.251V63.64H393.431V57.64ZM390.426 59.6304L384.186 77.0904L389.836 79.1096L396.076 61.6496L390.426 59.6304ZM487.522 33.04L486.705 35.9268L486.722 35.9316L486.74 35.9363L487.522 33.04ZM497.182 36.52L495.823 39.1945L495.831 39.1989L495.84 39.2033L497.182 36.52ZM501.742 39.04L504.325 40.5651L505.66 38.3035L503.595 36.681L501.742 39.04ZM490.762 57.64L488.962 60.04L491.642 62.0502L493.345 59.1651L490.762 57.64ZM487.402 55.66L485.928 58.2729L485.967 58.2952L486.007 58.3162L487.402 55.66ZM482.122 53.32L481.138 56.1543L481.138 56.1543L482.122 53.32ZM471.202 53.2L472.316 55.9854L472.35 55.9718L472.383 55.9574L471.202 53.2ZM470.242 58.78L472.417 56.7137L472.417 56.7137L470.242 58.78ZM474.082 61.24L472.813 63.9585L472.824 63.9639L472.836 63.9691L474.082 61.24ZM481.582 64.12L480.612 66.9588L480.633 66.9662L480.655 66.9734L481.582 64.12ZM496.642 73.12L494.414 75.1293L494.425 75.1412L494.436 75.153L496.642 73.12ZM501.022 80.14L498.23 81.2396L498.23 81.2396L501.022 80.14ZM499.822 100.36L497.238 98.836L497.232 98.8463L499.822 100.36ZM492.562 107.86L490.96 105.324L490.96 105.324L492.562 107.86ZM482.362 112.06L481.678 109.139L481.66 109.143L481.641 109.148L482.362 112.06ZM455.302 111.52L454.491 114.408L454.497 114.41L455.302 111.52ZM444.202 107.38L442.77 110.017L442.793 110.029L442.815 110.04L444.202 107.38ZM439.042 104.14L436.452 102.625L435.283 104.624L436.92 106.261L439.042 104.14ZM450.382 84.76L452.281 82.4381L449.565 80.2156L447.792 83.2449L450.382 84.76ZM453.202 86.5L451.745 89.1225L451.76 89.1309L451.775 89.1391L453.202 86.5ZM458.482 89.02L457.293 91.7746L457.303 91.7788L457.313 91.7829L458.482 89.02ZM464.902 91.3L464.064 94.1806L464.088 94.1876L464.112 94.1943L464.902 91.3ZM476.602 91.12L478.145 93.6925L478.145 93.6925L476.602 91.12ZM477.262 85.3L474.984 87.2524L475.01 87.2829L475.037 87.3127L477.262 85.3ZM473.302 82.66L471.937 85.3318L471.971 85.3491L472.005 85.3654L473.302 82.66ZM465.262 79.36L464.223 82.1745L464.239 82.1803L464.255 82.186L465.262 79.36ZM455.662 74.5L454.013 77.0063L454.013 77.0063L455.662 74.5ZM448.222 66.7L450.794 65.1565L450.794 65.1565L448.222 66.7ZM449.422 42.16L447.058 40.3125L447.058 40.3125L449.422 42.16ZM460.042 34.18L461.208 36.9439L461.219 36.9394L461.23 36.9348L460.042 34.18ZM473.902 34.36C478.81 34.36 483.066 34.8976 486.705 35.9268L488.338 30.1532C484.057 28.9424 479.234 28.36 473.902 28.36V34.36ZM486.74 35.9363C490.631 36.9869 493.635 38.0827 495.823 39.1945L498.541 33.8455C495.849 32.4773 492.413 31.2531 488.304 30.1437L486.74 35.9363ZM495.84 39.2033C497.062 39.8143 498.021 40.3138 498.731 40.7057C499.085 40.9017 499.362 41.0623 499.569 41.19C499.672 41.2534 499.751 41.304 499.808 41.3428C499.868 41.383 499.891 41.401 499.888 41.399L503.595 36.681C502.742 36.0111 500.905 35.0277 498.523 33.8367L495.84 39.2033ZM499.158 37.5149L488.178 56.1149L493.345 59.1651L504.325 40.5651L499.158 37.5149ZM492.562 55.24C491.713 54.6038 490.407 53.8493 488.796 53.0038L486.007 58.3162C487.597 59.1507 488.53 59.7162 488.962 60.04L492.562 55.24ZM488.876 53.0471C487.137 52.0662 485.209 51.2156 483.105 50.4857L481.138 56.1543C482.955 56.7844 484.547 57.4938 485.928 58.2729L488.876 53.0471ZM483.105 50.4857C480.876 49.7125 478.663 49.3 476.482 49.3V55.3C477.9 55.3 479.447 55.5675 481.138 56.1543L483.105 50.4857ZM476.482 49.3C474.104 49.3 471.909 49.6329 470.02 50.4426L472.383 55.9574C473.294 55.5671 474.62 55.3 476.482 55.3V49.3ZM470.088 50.4146C468.989 50.8542 467.944 51.5493 467.186 52.6113C466.416 53.6893 466.102 54.9196 466.102 56.14H472.102C472.102 56.0403 472.114 56.0051 472.111 56.0152C472.107 56.0294 472.093 56.063 472.068 56.0987C472.043 56.1331 472.031 56.1374 472.057 56.118C472.087 56.0962 472.164 56.046 472.316 55.9854L470.088 50.4146ZM466.102 56.14C466.102 57.9844 466.862 59.5784 468.067 60.8462L472.417 56.7137C472.101 56.3816 472.102 56.2156 472.102 56.14H466.102ZM468.067 60.8462C469.215 62.0552 470.901 63.0661 472.813 63.9585L475.35 58.5215C473.663 57.7339 472.788 57.1048 472.417 56.7137L468.067 60.8462ZM472.836 63.9691C474.805 64.8679 477.41 65.8645 480.612 66.9588L482.552 61.2812C479.434 60.2155 477.039 59.2921 475.328 58.5109L472.836 63.9691ZM480.655 66.9734C483.554 67.9145 486.179 69.0719 488.54 70.4372L491.543 65.2428C488.785 63.648 485.77 62.3255 482.508 61.2666L480.655 66.9734ZM488.54 70.4372C490.85 71.7723 492.799 73.3391 494.414 75.1293L498.869 71.1107C496.804 68.8209 494.354 66.8677 491.543 65.2428L488.54 70.4372ZM494.436 75.153C496.059 76.9144 497.323 78.9362 498.23 81.2396L503.813 79.0404C502.64 76.0638 500.985 73.4056 498.848 71.087L494.436 75.153ZM498.23 81.2396C499.111 83.4752 499.582 86.0734 499.582 89.08H505.582C505.582 85.4466 505.012 82.0848 503.813 79.0404L498.23 81.2396ZM499.582 89.08C499.582 93.059 498.752 96.2676 497.238 98.836L502.406 101.884C504.571 98.2124 505.582 93.901 505.582 89.08H499.582ZM497.232 98.8463C495.676 101.508 493.596 103.658 490.96 105.324L494.164 110.396C497.607 108.222 500.367 105.372 502.412 101.874L497.232 98.8463ZM490.96 105.324C488.223 107.052 485.137 108.329 481.678 109.139L483.045 114.981C487.107 114.031 490.821 112.508 494.164 110.396L490.96 105.324ZM481.641 109.148C478.158 110.009 474.619 110.44 471.022 110.44V116.44C475.104 116.44 479.126 115.951 483.082 114.972L481.641 109.148ZM471.022 110.44C465.353 110.44 460.392 109.822 456.106 108.63L454.497 114.41C459.412 115.778 464.93 116.44 471.022 116.44V110.44ZM456.112 108.632C451.667 107.384 448.18 106.07 445.588 104.72L442.815 110.04C445.903 111.65 449.817 113.096 454.491 114.408L456.112 108.632ZM445.633 104.743C444.261 103.999 443.192 103.382 442.407 102.889C442.015 102.643 441.714 102.44 441.491 102.278C441.381 102.198 441.299 102.134 441.24 102.086C441.18 102.036 441.158 102.014 441.163 102.019L436.92 106.261C437.499 106.84 438.342 107.421 439.216 107.971C440.151 108.558 441.342 109.241 442.77 110.017L445.633 104.743ZM441.631 105.655L452.971 86.2751L447.792 83.2449L436.452 102.625L441.631 105.655ZM448.482 87.0819C449.163 87.6389 450.339 88.3413 451.745 89.1225L454.659 83.8775C453.185 83.0587 452.481 82.6011 452.281 82.4381L448.482 87.0819ZM451.775 89.1391C453.353 89.9919 455.196 90.87 457.293 91.7746L459.67 86.2654C457.687 85.41 456.011 84.6081 454.628 83.8609L451.775 89.1391ZM457.313 91.7829C459.502 92.7092 461.753 93.5083 464.064 94.1806L465.74 88.4194C463.651 87.8117 461.621 87.0908 459.651 86.2571L457.313 91.7829ZM464.112 94.1943C466.517 94.8501 468.826 95.2 471.022 95.2V89.2C469.458 89.2 467.686 88.9499 465.691 88.4057L464.112 94.1943ZM471.022 95.2C473.711 95.2 476.238 94.8367 478.145 93.6925L475.058 88.5475C474.565 88.8433 473.372 89.2 471.022 89.2V95.2ZM478.145 93.6925C480.217 92.4496 481.402 90.4507 481.402 88H475.402C475.402 88.2248 475.357 88.2946 475.353 88.3008C475.347 88.311 475.294 88.4061 475.058 88.5475L478.145 93.6925ZM481.402 88C481.402 86.1655 480.65 84.5736 479.486 83.2873L475.037 87.3127C475.393 87.7064 475.402 87.9145 475.402 88H481.402ZM479.539 83.3476C478.399 82.0175 476.61 80.9188 474.598 79.9546L472.005 85.3654C473.833 86.2412 474.684 86.9025 474.984 87.2524L479.539 83.3476ZM474.666 79.9882C472.616 78.9412 469.795 77.7905 466.269 76.534L464.255 82.186C467.688 83.4095 470.228 84.4588 471.937 85.3318L474.666 79.9882ZM466.3 76.5455C463.158 75.386 460.163 73.8701 457.311 71.9937L454.013 77.0063C457.241 79.1299 460.645 80.854 464.223 82.1745L466.3 76.5455ZM457.311 71.9937C454.657 70.2477 452.489 67.9805 450.794 65.1565L445.649 68.2435C447.795 71.8195 450.587 74.7523 454.013 77.0063L457.311 71.9937ZM450.794 65.1565C449.223 62.5384 448.342 59.1091 448.342 54.7H442.342C442.342 59.8909 443.38 64.4616 445.649 68.2435L450.794 65.1565ZM448.342 54.7C448.342 50.4152 449.521 46.9041 451.785 44.0075L447.058 40.3125C443.882 44.3759 442.342 49.2248 442.342 54.7H448.342ZM451.785 44.0075C454.168 40.9585 457.284 38.6 461.208 36.9439L458.875 31.416C454.079 33.44 450.115 36.4015 447.058 40.3125L451.785 44.0075ZM461.23 36.9348C465.204 35.2211 469.419 34.36 473.902 34.36V28.36C468.625 28.36 463.6 29.3789 458.854 31.4252L461.23 36.9348ZM511.828 32.8V29.8H508.828V32.8H511.828ZM564.988 32.8H567.988V29.8H564.988V32.8ZM564.988 52.96V55.96H567.988V52.96H564.988ZM535.048 52.96V49.96H532.048V52.96H535.048ZM535.048 62.56H532.048V65.56H535.048V62.56ZM564.988 62.56H567.988V59.56H564.988V62.56ZM564.988 82.06V85.06H567.988V82.06H564.988ZM535.048 82.06V79.06H532.048V82.06H535.048ZM535.048 91.84H532.048V94.84H535.048V91.84ZM564.988 91.84H567.988V88.84H564.988V91.84ZM564.988 112V115H567.988V112H564.988ZM511.828 112H508.828V115H511.828V112ZM511.828 35.8H564.988V29.8H511.828V35.8ZM561.988 32.8V52.96H567.988V32.8H561.988ZM564.988 49.96H535.048V55.96H564.988V49.96ZM532.048 52.96V62.56H538.048V52.96H532.048ZM535.048 65.56H564.988V59.56H535.048V65.56ZM561.988 62.56V82.06H567.988V62.56H561.988ZM564.988 79.06H535.048V85.06H564.988V79.06ZM532.048 82.06V91.84H538.048V82.06H532.048ZM535.048 94.84H564.988V88.84H535.048V94.84ZM561.988 91.84V112H567.988V91.84H561.988ZM564.988 109H511.828V115H564.988V109ZM514.828 112V32.8H508.828V112H514.828ZM577.23 32.8V29.8H574.23V32.8H577.23ZM625.65 37.9L624.093 40.4644L624.104 40.4709L624.115 40.4773L625.65 37.9ZM638.37 51.88L641.078 50.5895L641.078 50.5895L638.37 51.88ZM638.37 92.86L641.078 94.1505L641.078 94.1505L638.37 92.86ZM625.65 106.9L624.101 104.331L624.093 104.336L625.65 106.9ZM577.23 112H574.23V115H577.23V112ZM600.45 53.26V50.26H597.45V53.26H600.45ZM600.45 91.54H597.45V94.54H600.45V91.54ZM610.89 89.02L609.111 86.6048L609.111 86.6048L610.89 89.02ZM616.11 82.18L618.879 83.3338L618.882 83.3271L618.885 83.3203L616.11 82.18ZM616.11 62.74L613.322 63.8476L613.331 63.8708L613.341 63.8938L616.11 62.74ZM610.89 55.84L609.083 58.2349L609.107 58.2526L609.131 58.2698L610.89 55.84ZM577.23 35.8H604.59V29.8H577.23V35.8ZM604.59 35.8C612.637 35.8 619.08 37.4205 624.093 40.4644L627.207 35.3356C621.021 31.5795 613.424 29.8 604.59 29.8V35.8ZM624.115 40.4773C629.242 43.5319 633.076 47.7427 635.662 53.1705L641.078 50.5895C637.985 44.0973 633.338 38.9881 627.186 35.3227L624.115 40.4773ZM635.662 53.1705C638.281 58.6666 639.63 65.0339 639.63 72.34H645.63C645.63 64.2861 644.139 57.0134 641.078 50.5895L635.662 53.1705ZM639.63 72.34C639.63 79.6887 638.28 86.0754 635.662 91.5695L641.078 94.1505C644.14 87.7246 645.63 80.4313 645.63 72.34H639.63ZM635.662 91.5695C633.074 97.0003 629.237 101.235 624.101 104.331L627.199 109.469C633.344 105.765 637.986 100.64 641.078 94.1505L635.662 91.5695ZM624.093 104.336C619.08 107.38 612.637 109 604.59 109V115C613.424 115 621.021 113.22 627.207 109.464L624.093 104.336ZM604.59 109H577.23V115H604.59V109ZM580.23 112V32.8H574.23V112H580.23ZM597.45 53.26V91.54H603.45V53.26H597.45ZM600.45 94.54H602.49V88.54H600.45V94.54ZM602.49 94.54C606.337 94.54 609.789 93.5576 612.67 91.4352L609.111 86.6048C607.431 87.8424 605.284 88.54 602.49 88.54V94.54ZM612.67 91.4352C615.432 89.4001 617.492 86.6636 618.879 83.3338L613.341 81.0262C612.328 83.4563 610.909 85.2799 609.111 86.6048L612.67 91.4352ZM618.885 83.3203C620.251 79.9952 620.91 76.3614 620.91 72.46H614.91C614.91 75.6786 614.369 78.5248 613.335 81.0397L618.885 83.3203ZM620.91 72.46C620.91 68.5243 620.253 64.8836 618.879 61.5862L613.341 63.8938C614.367 66.3564 614.91 69.1957 614.91 72.46H620.91ZM618.898 61.6324C617.549 58.2362 615.475 55.4564 612.65 53.4102L609.131 58.2698C610.945 59.5836 612.351 61.4038 613.322 63.8476L618.898 61.6324ZM612.697 53.445C609.815 51.2709 606.352 50.26 602.49 50.26V56.26C605.268 56.26 607.405 56.9691 609.083 58.2349L612.697 53.445ZM602.49 50.26H600.45V56.26H602.49V50.26ZM736.885 89.08L735.937 86.2339L735.924 86.2384L736.885 89.08ZM743.005 86.44L745.685 85.0918L744.221 82.1812L741.441 83.8802L743.005 86.44ZM752.905 106.12L754.826 108.425L756.656 106.9L755.585 104.772L752.905 106.12ZM710.305 110.44L709.21 113.233L709.219 113.236L709.229 113.24L710.305 110.44ZM696.445 101.86L694.414 104.068L694.42 104.073L694.425 104.078L696.445 101.86ZM687.025 88.9L684.296 90.1447L684.3 90.153L687.025 88.9ZM687.025 56.14L689.755 57.3847L689.759 57.3765L687.025 56.14ZM696.445 43.06L698.477 45.2678L698.483 45.2623L698.489 45.2568L696.445 43.06ZM710.245 34.42L709.157 31.6244L709.15 31.6272L710.245 34.42ZM752.905 38.68L755.585 40.0282L756.656 37.9003L754.826 36.3753L752.905 38.68ZM743.005 58.36L741.441 60.9198L744.221 62.6188L745.685 59.7082L743.005 58.36ZM736.885 55.72L735.924 58.5617L735.937 58.566L736.885 55.72ZM719.245 56.02L720.412 58.7841L720.412 58.7841L719.245 56.02ZM713.065 60.34L710.798 58.3752L710.795 58.3791L713.065 60.34ZM709.765 66.16L706.909 65.2437L706.903 65.2607L706.898 65.2777L709.765 66.16ZM709.765 78.64L706.893 79.507L706.901 79.5317L706.909 79.5563L709.765 78.64ZM713.065 84.52L710.773 86.4555L710.797 86.483L710.82 86.5099L713.065 84.52ZM719.245 88.78L720.412 86.0159L720.412 86.0159L719.245 88.78ZM728.785 93.4C731.906 93.4 734.931 92.9086 737.847 91.9216L735.924 86.2384C733.64 87.0114 731.265 87.4 728.785 87.4V93.4ZM737.834 91.926C740.57 91.0141 742.852 90.0496 744.57 88.9998L741.441 83.8802C740.279 84.5904 738.481 85.3859 735.937 86.2339L737.834 91.926ZM740.325 87.7882L750.225 107.468L755.585 104.772L745.685 85.0918L740.325 87.7882ZM750.985 103.815C749.486 105.064 746.64 106.542 742.118 108.154L744.133 113.806C748.811 112.138 752.484 110.376 754.826 108.425L750.985 103.815ZM742.118 108.154C737.917 109.652 732.853 110.44 726.865 110.44V116.44C733.358 116.44 739.134 115.588 744.133 113.806L742.118 108.154ZM726.865 110.44C721.376 110.44 716.222 109.501 711.382 107.64L709.229 113.24C714.789 115.379 720.675 116.44 726.865 116.44V110.44ZM711.401 107.647C706.534 105.738 702.229 103.07 698.466 99.6422L694.425 104.078C698.742 108.01 703.677 111.062 709.21 113.233L711.401 107.647ZM698.477 99.6522C694.77 96.2425 691.866 92.2475 689.751 87.647L684.3 90.153C686.745 95.4725 690.12 100.117 694.414 104.068L698.477 99.6522ZM689.755 87.6553C687.667 83.0756 686.605 78.0442 686.605 72.52H680.605C680.605 78.8358 681.824 84.7244 684.296 90.1447L689.755 87.6553ZM686.605 72.52C686.605 66.9958 687.667 61.9644 689.755 57.3847L684.296 54.8953C681.824 60.3156 680.605 66.2042 680.605 72.52H686.605ZM689.759 57.3765C691.875 52.6975 694.779 48.6696 698.477 45.2678L694.414 40.8522C690.112 44.8104 686.735 49.5025 684.292 54.9035L689.759 57.3765ZM698.489 45.2568C702.207 41.799 706.483 39.1185 711.341 37.2128L709.15 31.6272C703.608 33.8015 698.684 36.881 694.402 40.8632L698.489 45.2568ZM711.334 37.2156C716.214 35.3159 721.383 34.36 726.865 34.36V28.36C720.668 28.36 714.757 29.4441 709.157 31.6244L711.334 37.2156ZM726.865 34.36C732.853 34.36 737.917 35.1481 742.118 36.6458L744.133 30.9942C739.134 29.2119 733.358 28.36 726.865 28.36V34.36ZM742.118 36.6458C746.64 38.2581 749.486 39.7359 750.985 40.9847L754.826 36.3753C752.485 34.4241 748.811 32.6619 744.133 30.9942L742.118 36.6458ZM750.225 37.3318L740.325 57.0118L745.685 59.7082L755.585 40.0282L750.225 37.3318ZM744.57 55.8002C742.852 54.7504 740.57 53.7859 737.834 52.8739L735.937 58.566C738.481 59.4141 740.279 60.2096 741.441 60.9198L744.57 55.8002ZM737.847 52.8784C734.931 51.8914 731.906 51.4 728.785 51.4V57.4C731.265 57.4 733.64 57.7886 735.924 58.5616L737.847 52.8784ZM728.785 51.4C724.723 51.4 721.117 51.9743 718.079 53.2559L720.412 58.7841C722.494 57.9057 725.248 57.4 728.785 57.4V51.4ZM718.079 53.2559C715.166 54.4849 712.706 56.1746 710.798 58.3752L715.333 62.3048C716.545 60.9054 718.205 59.7151 720.412 58.7841L718.079 53.2559ZM710.795 58.3791C709.023 60.4305 707.717 62.7226 706.909 65.2437L712.622 67.0763C713.173 65.3574 714.068 63.7695 715.336 62.3009L710.795 58.3791ZM706.898 65.2777C706.176 67.6245 705.805 69.9816 705.805 72.34H711.805C711.805 70.6184 712.075 68.8555 712.633 67.0423L706.898 65.2777ZM705.805 72.34C705.805 74.7321 706.174 77.124 706.893 79.507L712.637 77.773C712.077 75.916 711.805 74.1079 711.805 72.34H705.805ZM706.909 79.5563C707.715 82.0711 709.015 84.3736 710.773 86.4555L715.358 82.5845C714.076 81.0664 713.175 79.4489 712.622 77.7237L706.909 79.5563ZM710.82 86.5099C712.727 88.6608 715.181 90.3212 718.079 91.5441L720.412 86.0159C718.19 85.0788 716.524 83.8991 715.311 82.5301L710.82 86.5099ZM718.079 91.5441C721.117 92.8257 724.723 93.4 728.785 93.4V87.4C725.248 87.4 722.494 86.8943 720.412 86.0159L718.079 91.5441ZM806.044 82.36H809.044V79.36H806.044V82.36ZM786.064 82.36V79.36H783.064V82.36H786.064ZM786.064 112V115H789.064V112H786.064ZM762.844 112H759.844V115H762.844V112ZM762.844 32.8V29.8H759.844V32.8H762.844ZM786.064 32.8H789.064V29.8H786.064V32.8ZM786.064 62.26H783.064V65.26H786.064V62.26ZM806.044 62.26V65.26H809.044V62.26H806.044ZM806.044 32.8V29.8H803.044V32.8H806.044ZM829.204 32.8H832.204V29.8H829.204V32.8ZM829.204 112V115H832.204V112H829.204ZM806.044 112H803.044V115H806.044V112ZM806.044 79.36H786.064V85.36H806.044V79.36ZM783.064 82.36V112H789.064V82.36H783.064ZM786.064 109H762.844V115H786.064V109ZM765.844 112V32.8H759.844V112H765.844ZM762.844 35.8H786.064V29.8H762.844V35.8ZM783.064 32.8V62.26H789.064V32.8H783.064ZM786.064 65.26H806.044V59.26H786.064V65.26ZM809.044 62.26V32.8H803.044V62.26H809.044ZM806.044 35.8H829.204V29.8H806.044V35.8ZM826.204 32.8V112H832.204V32.8H826.204ZM829.204 109H806.044V115H829.204V109ZM809.044 112V82.36H803.044V112H809.044ZM884.208 32.8V29.8H881.208V32.8H884.208ZM907.428 32.8H910.428V29.8H907.428V32.8ZM903.648 98.14L906.309 99.5254L906.309 99.5254L903.648 98.14ZM892.488 109.42L891.053 106.785L891.044 106.79L892.488 109.42ZM856.248 109.42L854.813 112.055L854.822 112.059L856.248 109.42ZM845.088 98.14L842.427 99.5254L842.427 99.5254L845.088 98.14ZM841.308 32.8V29.8H838.308V32.8H841.308ZM864.528 32.8H867.528V29.8H864.528V32.8ZM865.608 87.04L862.806 88.1129L862.81 88.1231L862.814 88.1332L865.608 87.04ZM868.848 91.12L867.284 93.6798L867.299 93.6893L867.315 93.6986L868.848 91.12ZM879.888 91.12L878.324 88.5602L878.324 88.5602L879.888 91.12ZM883.128 87.04L885.922 88.1332L885.926 88.1231L885.93 88.1129L883.128 87.04ZM884.208 35.8H907.428V29.8H884.208V35.8ZM904.428 32.8V81.1H910.428V32.8H904.428ZM904.428 81.1C904.428 87.2311 903.245 92.4182 900.987 96.7546L906.309 99.5254C909.091 94.1818 910.428 88.0089 910.428 81.1H904.428ZM900.987 96.7546C898.75 101.051 895.464 104.383 891.053 106.785L893.923 112.055C899.352 109.097 903.506 104.909 906.309 99.5254L900.987 96.7546ZM891.044 106.79C886.715 109.168 881.224 110.44 874.428 110.44V116.44C881.952 116.44 888.501 115.032 893.932 112.05L891.044 106.79ZM874.428 110.44C867.634 110.44 862.093 109.168 857.674 106.781L854.822 112.059C860.323 115.032 866.901 116.44 874.428 116.44V110.44ZM857.683 106.785C853.272 104.383 849.986 101.051 847.749 96.7546L842.427 99.5254C845.23 104.909 849.384 109.097 854.813 112.055L857.683 106.785ZM847.749 96.7546C845.491 92.4182 844.308 87.2311 844.308 81.1H838.308C838.308 88.0089 839.645 94.1818 842.427 99.5254L847.749 96.7546ZM844.308 81.1V32.8H838.308V81.1H844.308ZM841.308 35.8H864.528V29.8H841.308V35.8ZM861.528 32.8V79.84H867.528V32.8H861.528ZM861.528 79.84C861.528 82.9759 861.91 85.7732 862.806 88.1129L868.41 85.9671C867.866 84.5468 867.528 82.5441 867.528 79.84H861.528ZM862.814 88.1332C863.731 90.4751 865.193 92.4023 867.284 93.6798L870.412 88.5602C869.623 88.0777 868.925 87.2849 868.402 85.9468L862.814 88.1332ZM867.315 93.6986C869.378 94.9256 871.807 95.44 874.428 95.44V89.44C872.569 89.44 871.278 89.0744 870.381 88.5414L867.315 93.6986ZM874.428 95.44C877.016 95.44 879.419 94.9227 881.452 93.6798L878.324 88.5602C877.477 89.0773 876.24 89.44 874.428 89.44V95.44ZM881.452 93.6798C883.543 92.4023 885.005 90.4751 885.922 88.1332L880.334 85.9468C879.811 87.2849 879.113 88.0777 878.324 88.5602L881.452 93.6798ZM885.93 88.1129C886.826 85.7732 887.208 82.9759 887.208 79.84H881.208C881.208 82.5441 880.87 84.5468 880.326 85.9671L885.93 88.1129ZM887.208 79.84V32.8H881.208V79.84H887.208ZM940.183 53.92L940.693 50.9636L935.175 50.0123L937.44 55.1332L940.183 53.92ZM941.923 54.22H944.923V51.693L942.433 51.2636L941.923 54.22ZM941.923 112V115H944.923V112H941.923ZM918.703 112H915.703V115H918.703V112ZM918.703 32.8V29.8H915.703V32.8H918.703ZM950.083 32.8L952.82 31.5713L952.025 29.8H950.083V32.8ZM975.943 90.4L976.551 93.3378L980.211 92.5806L978.68 89.1713L975.943 90.4ZM974.203 90.76H971.203V94.4442L974.811 93.6978L974.203 90.76ZM974.203 32.8V29.8H971.203V32.8H974.203ZM997.423 32.8H1000.42V29.8H997.423V32.8ZM997.423 112V115H1000.42V112H997.423ZM965.863 112L963.12 113.213L963.91 115H965.863V112ZM939.674 56.8764L941.414 57.1764L942.433 51.2636L940.693 50.9636L939.674 56.8764ZM938.923 54.22V112H944.923V54.22H938.923ZM941.923 109H918.703V115H941.923V109ZM921.703 112V32.8H915.703V112H921.703ZM918.703 35.8H950.083V29.8H918.703V35.8ZM947.346 34.0287L973.206 91.6287L978.68 89.1713L952.82 31.5713L947.346 34.0287ZM975.335 87.4622L973.595 87.8222L974.811 93.6978L976.551 93.3378L975.335 87.4622ZM977.203 90.76V32.8H971.203V90.76H977.203ZM974.203 35.8H997.423V29.8H974.203V35.8ZM994.423 32.8V112H1000.42V32.8H994.423ZM997.423 109H965.863V115H997.423V109ZM968.607 110.787L942.927 52.7068L937.44 55.1332L963.12 113.213L968.607 110.787ZM1048.95 66.88V63.88H1045.95V66.88H1048.95ZM1089.57 66.88H1092.57V63.88H1089.57V66.88ZM1086.75 88.54L1089.56 89.6033L1089.56 89.5958L1086.75 88.54ZM1078.59 101.62L1076.41 99.5574L1076.41 99.5581L1078.59 101.62ZM1065.87 110.32L1067.03 113.087L1067.03 113.087L1065.87 110.32ZM1031.97 110.32L1030.84 113.096L1030.84 113.099L1031.97 110.32ZM1018.89 101.62L1016.74 103.707L1016.74 103.712L1016.75 103.718L1018.89 101.62ZM1010.49 88.54L1007.69 89.6154L1007.7 89.629L1007.7 89.6425L1010.49 88.54ZM1010.49 56.26L1007.7 55.1651L1007.69 55.177L1010.49 56.26ZM1018.89 43.18L1016.75 41.0819L1016.75 41.0819L1018.89 43.18ZM1031.97 34.48L1030.84 31.7006L1030.84 31.7037L1031.97 34.48ZM1064.13 33.22L1063.28 36.0972L1063.28 36.0972L1064.13 33.22ZM1074.75 38.08L1073.04 40.5441L1073.05 40.5522L1073.06 40.5601L1074.75 38.08ZM1081.83 44.44L1079.5 46.3241L1079.51 46.3342L1079.51 46.3442L1081.83 44.44ZM1086.21 50.8L1087.45 53.5341L1090.38 52.2085L1088.85 49.3745L1086.21 50.8ZM1063.89 60.88L1061.3 62.3916L1062.66 64.7268L1065.13 63.6141L1063.89 60.88ZM1058.91 55.48L1057.07 57.8481L1057.08 57.8562L1057.09 57.8643L1058.91 55.48ZM1042.05 54.52L1043.33 57.2333L1043.34 57.2282L1043.35 57.223L1042.05 54.52ZM1036.59 58.72L1038.86 60.6809L1038.87 60.6683L1038.88 60.6555L1036.59 58.72ZM1033.05 64.9L1030.23 63.894L1030.22 63.908L1030.22 63.922L1033.05 64.9ZM1033.05 79.9L1030.21 80.8631L1030.22 80.8923L1030.23 80.9213L1033.05 79.9ZM1036.59 86.08L1034.3 88.0155L1034.31 88.0283L1034.32 88.0409L1036.59 86.08ZM1042.05 90.22L1040.77 92.9333L1040.78 92.9379L1040.79 92.9424L1042.05 90.22ZM1054.77 91.3L1055.28 94.2572L1055.31 94.2524L1055.33 94.247L1054.77 91.3ZM1059.03 89.92L1060.41 92.5847L1060.43 92.576L1060.44 92.5671L1059.03 89.92ZM1061.85 87.58L1059.45 85.78L1059.45 85.7884L1059.44 85.7968L1061.85 87.58ZM1063.23 84.28L1066.19 84.7577L1066.75 81.28H1063.23V84.28ZM1048.95 84.28H1045.95V87.28H1048.95V84.28ZM1048.95 69.88H1089.57V63.88H1048.95V69.88ZM1086.57 66.88V72.34H1092.57V66.88H1086.57ZM1086.57 72.34C1086.57 77.8104 1085.69 82.8496 1083.94 87.4842L1089.56 89.5958C1091.58 84.2304 1092.57 78.4696 1092.57 72.34H1086.57ZM1083.95 87.4767C1082.2 92.0747 1079.69 96.0929 1076.41 99.5574L1080.77 103.683C1084.61 99.6271 1087.54 94.9253 1089.56 89.6033L1083.95 87.4767ZM1076.41 99.5581C1073.19 102.96 1069.31 105.627 1064.71 107.553L1067.03 113.087C1072.36 110.853 1076.95 107.72 1080.77 103.682L1076.41 99.5581ZM1064.71 107.553C1060.17 109.459 1055.01 110.44 1049.19 110.44V116.44C1055.69 116.44 1061.66 115.341 1067.03 113.087L1064.71 107.553ZM1049.19 110.44C1043.16 110.44 1037.81 109.455 1033.1 107.541L1030.84 113.099C1036.37 115.345 1042.5 116.44 1049.19 116.44V110.44ZM1033.11 107.544C1028.39 105.61 1024.37 102.934 1021.04 99.5219L1016.75 103.718C1020.69 107.746 1025.4 110.87 1030.84 113.096L1033.11 107.544ZM1021.05 99.5334C1017.69 96.062 1015.1 92.0381 1013.28 87.4375L1007.7 89.6425C1009.8 94.9619 1012.82 99.658 1016.74 103.707L1021.05 99.5334ZM1013.29 87.4646C1011.51 82.8353 1010.61 77.8029 1010.61 72.34H1004.61C1004.61 78.477 1005.63 84.2447 1007.69 89.6154L1013.29 87.4646ZM1010.61 72.34C1010.61 66.9195 1011.51 61.9299 1013.29 57.343L1007.69 55.177C1005.63 60.5101 1004.61 66.2405 1004.61 72.34H1010.61ZM1013.29 57.3549C1015.1 52.7172 1017.69 48.7014 1021.04 45.2781L1016.75 41.0819C1012.82 45.0986 1009.8 49.8028 1007.7 55.1651L1013.29 57.3549ZM1021.04 45.2781C1024.37 41.8664 1028.39 39.1899 1033.11 37.2563L1030.84 31.7037C1025.4 33.9301 1020.69 37.0536 1016.75 41.0819L1021.04 45.2781ZM1033.1 37.2594C1037.81 35.3454 1043.16 34.36 1049.19 34.36V28.36C1042.5 28.36 1036.37 29.4546 1030.84 31.7006L1033.1 37.2594ZM1049.19 34.36C1054.75 34.36 1059.43 34.9596 1063.28 36.0972L1064.98 30.3428C1060.43 29.0004 1055.15 28.36 1049.19 28.36V34.36ZM1063.28 36.0972C1067.25 37.2681 1070.48 38.766 1073.04 40.5441L1076.46 35.6159C1073.26 33.394 1069.42 31.6519 1064.98 30.3428L1063.28 36.0972ZM1073.06 40.5601C1075.75 42.3847 1077.87 44.312 1079.5 46.3241L1084.17 42.5559C1082.11 40.008 1079.52 37.6953 1076.44 35.5999L1073.06 40.5601ZM1079.51 46.3442C1081.26 48.4738 1082.6 50.4338 1083.57 52.2254L1088.85 49.3745C1087.66 47.1662 1086.08 44.8862 1084.15 42.5358L1079.51 46.3442ZM1084.98 48.0659L1062.66 58.1459L1065.13 63.6141L1087.45 53.5341L1084.98 48.0659ZM1066.48 59.3684C1065.12 57.038 1063.17 54.9571 1060.73 53.0957L1057.09 57.8643C1059.05 59.3629 1060.42 60.882 1061.3 62.3916L1066.48 59.3684ZM1060.75 53.1119C1057.84 50.8454 1053.82 49.96 1049.19 49.96V55.96C1053.21 55.96 1055.66 56.7546 1057.07 57.8481L1060.75 53.1119ZM1049.19 49.96C1046.18 49.96 1043.35 50.5654 1040.75 51.817L1043.35 57.223C1045.07 56.3946 1047 55.96 1049.19 55.96V49.96ZM1040.77 51.8067C1038.26 52.9913 1036.1 54.6573 1034.3 56.7845L1038.88 60.6555C1040.13 59.1827 1041.6 58.0487 1043.33 57.2333L1040.77 51.8067ZM1034.32 56.7591C1032.54 58.8213 1031.18 61.2113 1030.23 63.894L1035.88 65.906C1036.6 63.8687 1037.6 62.1387 1038.86 60.6809L1034.32 56.7591ZM1030.22 63.922C1029.3 66.5797 1028.85 69.3924 1028.85 72.34H1034.85C1034.85 70.0076 1035.2 67.8603 1035.89 65.878L1030.22 63.922ZM1028.85 72.34C1028.85 75.3228 1029.3 78.1703 1030.21 80.8631L1035.89 78.9369C1035.21 76.9097 1034.85 74.7172 1034.85 72.34H1028.85ZM1030.23 80.9213C1031.19 83.559 1032.54 85.9318 1034.3 88.0155L1038.88 84.1445C1037.6 82.6282 1036.6 80.881 1035.87 78.8787L1030.23 80.9213ZM1034.32 88.0409C1036.12 90.1207 1038.28 91.7559 1040.77 92.9333L1043.33 87.5067C1041.59 86.6841 1040.11 85.5593 1038.86 84.1191L1034.32 88.0409ZM1040.79 92.9424C1043.38 94.1416 1046.2 94.72 1049.19 94.72V88.72C1046.99 88.72 1045.04 88.2984 1043.31 87.4976L1040.79 92.9424ZM1049.19 94.72C1051.4 94.72 1053.43 94.5717 1055.28 94.2572L1054.27 88.3428C1052.83 88.5883 1051.14 88.72 1049.19 88.72V94.72ZM1055.33 94.247C1057.22 93.8886 1058.93 93.3515 1060.41 92.5847L1057.65 87.2553C1056.82 87.6885 1055.69 88.0714 1054.21 88.353L1055.33 94.247ZM1060.44 92.5671C1061.96 91.7563 1063.27 90.7034 1064.26 89.3632L1059.44 85.7968C1059.07 86.2966 1058.5 86.8037 1057.62 87.2729L1060.44 92.5671ZM1064.25 89.38C1065.28 88.0129 1065.92 86.4543 1066.19 84.7577L1060.27 83.8023C1060.14 84.5857 1059.87 85.2271 1059.45 85.78L1064.25 89.38ZM1063.23 81.28H1048.95V87.28H1063.23V81.28ZM1051.95 84.28V66.88H1045.95V84.28H1051.95ZM1144.12 33.04L1143.31 35.9268L1143.32 35.9316L1143.34 35.9363L1144.12 33.04ZM1153.78 36.52L1152.42 39.1945L1152.43 39.1989L1152.44 39.2033L1153.78 36.52ZM1158.34 39.04L1160.93 40.5651L1162.26 38.3035L1160.2 36.681L1158.34 39.04ZM1147.36 57.64L1145.56 60.04L1148.24 62.0502L1149.95 59.1651L1147.36 57.64ZM1144 55.66L1142.53 58.2729L1142.57 58.2952L1142.61 58.3162L1144 55.66ZM1138.72 53.32L1137.74 56.1543L1137.74 56.1543L1138.72 53.32ZM1127.8 53.2L1128.92 55.9854L1128.95 55.9718L1128.99 55.9574L1127.8 53.2ZM1126.84 58.78L1129.02 56.7137L1129.02 56.7137L1126.84 58.78ZM1130.68 61.24L1129.41 63.9585L1129.43 63.9639L1129.44 63.9691L1130.68 61.24ZM1138.18 64.12L1137.21 66.9588L1137.23 66.9662L1137.26 66.9734L1138.18 64.12ZM1153.24 73.12L1151.02 75.1293L1151.03 75.1412L1151.04 75.153L1153.24 73.12ZM1157.62 80.14L1154.83 81.2396L1154.83 81.2396L1157.62 80.14ZM1156.42 100.36L1153.84 98.836L1153.83 98.8463L1156.42 100.36ZM1149.16 107.86L1147.56 105.324L1147.56 105.324L1149.16 107.86ZM1138.96 112.06L1138.28 109.139L1138.26 109.143L1138.24 109.148L1138.96 112.06ZM1111.9 111.52L1111.09 114.408L1111.1 114.41L1111.9 111.52ZM1100.8 107.38L1099.37 110.017L1099.39 110.029L1099.42 110.04L1100.8 107.38ZM1095.64 104.14L1093.05 102.625L1091.88 104.624L1093.52 106.261L1095.64 104.14ZM1106.98 84.76L1108.88 82.4381L1106.17 80.2156L1104.39 83.2449L1106.98 84.76ZM1109.8 86.5L1108.35 89.1225L1108.36 89.1309L1108.38 89.1391L1109.8 86.5ZM1115.08 89.02L1113.9 91.7746L1113.9 91.7788L1113.91 91.7829L1115.08 89.02ZM1121.5 91.3L1120.67 94.1806L1120.69 94.1876L1120.71 94.1943L1121.5 91.3ZM1133.2 91.12L1134.75 93.6925L1134.75 93.6925L1133.2 91.12ZM1133.86 85.3L1131.59 87.2524L1131.61 87.2829L1131.64 87.3127L1133.86 85.3ZM1129.9 82.66L1128.54 85.3318L1128.57 85.3491L1128.61 85.3654L1129.9 82.66ZM1121.86 79.36L1120.82 82.1745L1120.84 82.1803L1120.86 82.186L1121.86 79.36ZM1112.26 74.5L1110.61 77.0063L1110.61 77.0063L1112.26 74.5ZM1104.82 66.7L1107.4 65.1565L1107.4 65.1565L1104.82 66.7ZM1106.02 42.16L1103.66 40.3125L1103.66 40.3125L1106.02 42.16ZM1116.64 34.18L1117.81 36.9439L1117.82 36.9394L1117.83 36.9348L1116.64 34.18ZM1130.5 34.36C1135.41 34.36 1139.67 34.8976 1143.31 35.9268L1144.94 30.1532C1140.66 28.9424 1135.84 28.36 1130.5 28.36V34.36ZM1143.34 35.9363C1147.23 36.9869 1150.24 38.0827 1152.42 39.1945L1155.14 33.8455C1152.45 32.4773 1149.01 31.2531 1144.91 30.1437L1143.34 35.9363ZM1152.44 39.2033C1153.66 39.8143 1154.62 40.3138 1155.33 40.7057C1155.69 40.9017 1155.96 41.0623 1156.17 41.19C1156.27 41.2534 1156.35 41.304 1156.41 41.3428C1156.47 41.383 1156.49 41.401 1156.49 41.399L1160.2 36.681C1159.34 36.0111 1157.51 35.0277 1155.12 33.8367L1152.44 39.2033ZM1155.76 37.5149L1144.78 56.1149L1149.95 59.1651L1160.93 40.5651L1155.76 37.5149ZM1149.16 55.24C1148.31 54.6038 1147.01 53.8493 1145.4 53.0038L1142.61 58.3162C1144.2 59.1507 1145.13 59.7162 1145.56 60.04L1149.16 55.24ZM1145.48 53.0471C1143.74 52.0662 1141.81 51.2156 1139.71 50.4857L1137.74 56.1543C1139.56 56.7844 1141.15 57.4938 1142.53 58.2729L1145.48 53.0471ZM1139.71 50.4857C1137.48 49.7125 1135.26 49.3 1133.08 49.3V55.3C1134.5 55.3 1136.05 55.5675 1137.74 56.1543L1139.71 50.4857ZM1133.08 49.3C1130.71 49.3 1128.51 49.6329 1126.62 50.4426L1128.99 55.9574C1129.9 55.5671 1131.22 55.3 1133.08 55.3V49.3ZM1126.69 50.4146C1125.59 50.8542 1124.55 51.5493 1123.79 52.6113C1123.02 53.6893 1122.7 54.9196 1122.7 56.14H1128.7C1128.7 56.0403 1128.72 56.0051 1128.71 56.0152C1128.71 56.0294 1128.7 56.063 1128.67 56.0987C1128.64 56.1331 1128.63 56.1374 1128.66 56.118C1128.69 56.0962 1128.77 56.046 1128.92 55.9854L1126.69 50.4146ZM1122.7 56.14C1122.7 57.9844 1123.46 59.5784 1124.67 60.8462L1129.02 56.7137C1128.7 56.3816 1128.7 56.2156 1128.7 56.14H1122.7ZM1124.67 60.8462C1125.82 62.0552 1127.5 63.0661 1129.41 63.9585L1131.95 58.5215C1130.26 57.7339 1129.39 57.1048 1129.02 56.7137L1124.67 60.8462ZM1129.44 63.9691C1131.41 64.8679 1134.01 65.8645 1137.21 66.9588L1139.15 61.2812C1136.04 60.2155 1133.64 59.2921 1131.93 58.5109L1129.44 63.9691ZM1137.26 66.9734C1140.16 67.9145 1142.78 69.0719 1145.14 70.4372L1148.14 65.2428C1145.39 63.648 1142.37 62.3255 1139.11 61.2666L1137.26 66.9734ZM1145.14 70.4372C1147.45 71.7723 1149.4 73.3391 1151.02 75.1293L1155.47 71.1107C1153.41 68.8209 1150.96 66.8677 1148.14 65.2428L1145.14 70.4372ZM1151.04 75.153C1152.66 76.9144 1153.92 78.9362 1154.83 81.2396L1160.41 79.0404C1159.24 76.0638 1157.59 73.4056 1155.45 71.087L1151.04 75.153ZM1154.83 81.2396C1155.71 83.4752 1156.18 86.0734 1156.18 89.08H1162.18C1162.18 85.4466 1161.61 82.0848 1160.41 79.0404L1154.83 81.2396ZM1156.18 89.08C1156.18 93.059 1155.35 96.2676 1153.84 98.836L1159.01 101.884C1161.17 98.2124 1162.18 93.901 1162.18 89.08H1156.18ZM1153.83 98.8463C1152.28 101.508 1150.2 103.658 1147.56 105.324L1150.77 110.396C1154.21 108.222 1156.97 105.372 1159.01 101.874L1153.83 98.8463ZM1147.56 105.324C1144.82 107.052 1141.74 108.329 1138.28 109.139L1139.65 114.981C1143.71 114.031 1147.42 112.508 1150.77 110.396L1147.56 105.324ZM1138.24 109.148C1134.76 110.009 1131.22 110.44 1127.62 110.44V116.44C1131.71 116.44 1135.73 115.951 1139.68 114.972L1138.24 109.148ZM1127.62 110.44C1121.95 110.44 1116.99 109.822 1112.71 108.63L1111.1 114.41C1116.01 115.778 1121.53 116.44 1127.62 116.44V110.44ZM1112.71 108.632C1108.27 107.384 1104.78 106.07 1102.19 104.72L1099.42 110.04C1102.5 111.65 1106.42 113.096 1111.09 114.408L1112.71 108.632ZM1102.23 104.743C1100.86 103.999 1099.79 103.382 1099.01 102.889C1098.62 102.643 1098.32 102.44 1098.09 102.278C1097.98 102.198 1097.9 102.134 1097.84 102.086C1097.78 102.036 1097.76 102.014 1097.76 102.019L1093.52 106.261C1094.1 106.84 1094.94 107.421 1095.82 107.971C1096.75 108.558 1097.94 109.241 1099.37 110.017L1102.23 104.743ZM1098.23 105.655L1109.57 86.2751L1104.39 83.2449L1093.05 102.625L1098.23 105.655ZM1105.08 87.0819C1105.76 87.6389 1106.94 88.3413 1108.35 89.1225L1111.26 83.8775C1109.79 83.0587 1109.08 82.6011 1108.88 82.4381L1105.08 87.0819ZM1108.38 89.1391C1109.95 89.9919 1111.8 90.87 1113.9 91.7746L1116.27 86.2654C1114.29 85.41 1112.61 84.6081 1111.23 83.8609L1108.38 89.1391ZM1113.91 91.7829C1116.1 92.7092 1118.35 93.5083 1120.67 94.1806L1122.34 88.4194C1120.25 87.8117 1118.22 87.0908 1116.25 86.2571L1113.91 91.7829ZM1120.71 94.1943C1123.12 94.8501 1125.43 95.2 1127.62 95.2V89.2C1126.06 89.2 1124.29 88.9499 1122.29 88.4057L1120.71 94.1943ZM1127.62 95.2C1130.31 95.2 1132.84 94.8367 1134.75 93.6925L1131.66 88.5475C1131.17 88.8433 1129.97 89.2 1127.62 89.2V95.2ZM1134.75 93.6925C1136.82 92.4496 1138 90.4507 1138 88H1132C1132 88.2248 1131.96 88.2946 1131.95 88.3008C1131.95 88.311 1131.9 88.4061 1131.66 88.5475L1134.75 93.6925ZM1138 88C1138 86.1655 1137.25 84.5736 1136.09 83.2873L1131.64 87.3127C1131.99 87.7064 1132 87.9145 1132 88H1138ZM1136.14 83.3476C1135 82.0175 1133.21 80.9188 1131.2 79.9546L1128.61 85.3654C1130.43 86.2412 1131.29 86.9025 1131.59 87.2524L1136.14 83.3476ZM1131.27 79.9882C1129.22 78.9412 1126.4 77.7905 1122.87 76.534L1120.86 82.186C1124.29 83.4095 1126.83 84.4588 1128.54 85.3318L1131.27 79.9882ZM1122.9 76.5455C1119.76 75.386 1116.76 73.8701 1113.91 71.9937L1110.61 77.0063C1113.84 79.1299 1117.25 80.854 1120.82 82.1745L1122.9 76.5455ZM1113.91 71.9937C1111.26 70.2477 1109.09 67.9805 1107.4 65.1565L1102.25 68.2435C1104.4 71.8195 1107.19 74.7523 1110.61 77.0063L1113.91 71.9937ZM1107.4 65.1565C1105.82 62.5384 1104.94 59.1091 1104.94 54.7H1098.94C1098.94 59.8909 1099.98 64.4616 1102.25 68.2435L1107.4 65.1565ZM1104.94 54.7C1104.94 50.4152 1106.12 46.9041 1108.39 44.0075L1103.66 40.3125C1100.48 44.3759 1098.94 49.2248 1098.94 54.7H1104.94ZM1108.39 44.0075C1110.77 40.9585 1113.89 38.6 1117.81 36.9439L1115.48 31.416C1110.68 33.44 1106.72 36.4015 1103.66 40.3125L1108.39 44.0075ZM1117.83 36.9348C1121.81 35.2211 1126.02 34.36 1130.5 34.36V28.36C1125.23 28.36 1120.2 29.3789 1115.46 31.4252L1117.83 36.9348Z" fill="black" mask="url(#path-1-outside-1_1_8)"/>
</g>
<defs>
<filter id="filter0_d_1_8" x="60.0901" y="31.36" width="1106.09" height="91.08" filterUnits="userSpaceOnUse" color-interpolation-filters="sRGB">
<feFlood flood-opacity="0" result="BackgroundImageFix"/>
<feColorMatrix in="SourceAlpha" type="matrix" values="0 0 0 0 0 0 0 0 0 0 0 0 0 0 0 0 0 0 127 0" result="hardAlpha"/>
<feOffset dx="7" dy="9"/>
<feComposite in2="hardAlpha" operator="out"/>
<feColorMatrix type="matrix" values="0 0 0 0 0 0 0 0 0 0 0 0 0 0 0 0 0 0 1 0"/>
<feBlend mode="normal" in2="BackgroundImageFix" result="effect1_dropShadow_1_8"/>
<feBlend mode="normal" in="SourceGraphic" in2="effect1_dropShadow_1_8" result="shape"/>
</filter>
</defs>
</svg>
